<svg width="670" height="115" viewBox="0 0 670 115" fill="none" xmlns="http://www.w3.org/2000/svg">
<path opacity="0.7" d="M86.736 97.176L87.4931 97.8293L88.0491 97.185L87.502 96.5331L86.736 97.176ZM73.2 81.048L73.966 80.4051L73.2349 79.534L72.4645 80.3705L73.2 81.048ZM71.76 32.232L71.0932 32.9772L71.8732 33.6752L72.5349 32.8641L71.76 32.232ZM85.152 15.816L85.9269 16.4481L86.4926 15.7547L85.8659 15.1158L85.152 15.816ZM51.744 114.016C65.9942 114.016 78.2256 108.568 87.4931 97.8293L85.979 96.5226C77.1024 106.808 65.4298 112.016 51.744 112.016V114.016ZM87.502 96.5331L73.966 80.4051L72.434 81.6909L85.97 97.8189L87.502 96.5331ZM72.4645 80.3705C67.5449 85.7118 61.0248 89.84 52.752 89.84V91.84C61.7592 91.84 68.7752 87.3282 73.9355 81.7255L72.4645 80.3705ZM52.752 89.84C45.4964 89.84 39.5681 86.8839 35.4248 81.3824C31.2579 75.8496 28.84 67.6617 28.84 57.144H26.84C26.84 67.9383 29.3181 76.5984 33.8272 82.5856C38.3599 88.604 44.8876 91.84 52.752 91.84V89.84ZM28.84 57.144C28.84 36.5981 39.9637 24.88 53.04 24.88V22.88C38.4683 22.88 26.84 35.9299 26.84 57.144H28.84ZM53.04 24.88C60.3163 24.88 65.7019 28.1534 71.0932 32.9772L72.4268 31.4867C66.8741 26.5186 61.0277 22.88 53.04 22.88V24.88ZM72.5349 32.8641L85.9269 16.4481L84.3771 15.1839L70.9851 31.5999L72.5349 32.8641ZM85.8659 15.1158C78.3757 7.47865 66.8989 0.848 52.608 0.848V2.848C66.2531 2.848 77.2403 9.17734 84.4381 16.5162L85.8659 15.1158ZM52.608 0.848C38.7468 0.848 25.7043 6.05737 16.1275 15.8363C6.54625 25.6199 0.488 39.9209 0.488 58.008H2.488C2.488 40.3831 8.38175 26.6041 17.5565 17.2357C26.7357 7.86263 39.2532 2.848 52.608 2.848V0.848ZM0.488 58.008C0.488 76.3702 6.32247 90.3914 15.7008 99.825C25.0744 109.254 37.9057 114.016 51.744 114.016V112.016C38.3663 112.016 26.0696 107.418 17.1192 98.415C8.17353 89.4166 2.488 75.9338 2.488 58.008H0.488ZM140.451 114.016C155.32 114.016 167.879 108.662 176.711 98.7784C185.534 88.9059 190.555 74.6084 190.555 56.856H188.555C188.555 74.2396 183.641 88.0221 175.22 97.4456C166.808 106.858 154.815 112.016 140.451 112.016V114.016ZM190.555 56.856C190.555 39.1739 185.532 25.1584 176.702 15.5532C167.863 5.93984 155.305 0.848 140.451 0.848V2.848C154.83 2.848 166.824 7.76416 175.229 16.9068C183.642 26.0576 188.555 39.5461 188.555 56.856H190.555ZM140.451 0.848C125.6 0.848 113.041 5.90246 104.202 15.4985C95.3699 25.0864 90.3474 39.1029 90.3474 56.856H92.3474C92.3474 39.4731 97.2609 25.9855 105.673 16.8535C114.077 7.72954 126.071 2.848 140.451 2.848V0.848ZM90.3474 56.856C90.3474 74.6084 95.3692 88.9059 104.192 98.7784C113.024 108.662 125.583 114.016 140.451 114.016V112.016C126.088 112.016 114.095 106.858 105.683 97.4456C97.2616 88.0221 92.3474 74.2396 92.3474 56.856H90.3474ZM140.451 89.84C133.758 89.84 128.371 86.7195 124.616 81.0705C120.837 75.384 118.699 67.103 118.699 56.856H116.699C116.699 67.345 118.882 76.056 122.951 82.1775C127.044 88.3365 133.033 91.84 140.451 91.84V89.84ZM118.699 56.856C118.699 46.6082 120.837 38.5892 124.605 33.1623C128.344 27.7761 133.727 24.88 140.451 24.88V22.88C133.064 22.88 127.07 26.1039 122.962 32.0217C118.882 37.8988 116.699 46.3678 116.699 56.856H118.699ZM140.451 24.88C147.177 24.88 152.597 27.7774 156.372 33.1658C160.175 38.5931 162.347 46.6112 162.347 56.856H164.347C164.347 46.3648 162.128 37.8949 158.01 32.0182C153.866 26.1026 147.838 22.88 140.451 22.88V24.88ZM162.347 56.856C162.347 67.1 160.175 75.3802 156.361 81.067C152.571 86.718 147.146 89.84 140.451 89.84V91.84C147.869 91.84 153.892 88.338 158.022 82.181C162.128 76.0598 164.347 67.348 164.347 56.856H162.347ZM209.447 111H208.447V112H209.447V111ZM233.926 111V112H234.926V111H233.926ZM230.615 35.832V34.832H229.513L229.619 35.9279L230.615 35.832ZM231.335 35.832L232.247 35.4233L231.982 34.832H231.335V35.832ZM241.846 59.304L240.934 59.7127L240.945 59.7367L240.957 59.7601L241.846 59.304ZM268.342 111L267.453 111.456L267.731 112H268.342V111ZM294.551 111V112H295.551V111H294.551ZM294.551 3.71999H295.551V2.71999H294.551V3.71999ZM270.07 3.71999V2.71999H269.07V3.71999H270.07ZM273.526 78.888V79.888H274.647L274.52 78.7748L273.526 78.888ZM272.807 78.888L271.892 79.2926L272.155 79.888H272.807V78.888ZM262.294 55.128L263.209 54.7234L263.197 54.6952L263.182 54.6679L262.294 55.128ZM235.654 3.71999L236.542 3.25989L236.263 2.71999H235.654V3.71999ZM209.447 3.71999V2.71999H208.447V3.71999H209.447ZM209.447 112H233.926V110H209.447V112ZM234.926 111V75.432H232.926V111H234.926ZM234.926 75.432C234.926 62.4082 232.755 47.6124 231.61 35.7361L229.619 35.9279C230.778 47.9556 232.926 62.5358 232.926 75.432H234.926ZM230.615 36.832H231.335V34.832H230.615V36.832ZM230.422 36.2407L240.934 59.7127L242.759 58.8953L232.247 35.4233L230.422 36.2407ZM240.957 59.7601L267.453 111.456L269.232 110.544L242.736 58.8479L240.957 59.7601ZM268.342 112H294.551V110H268.342V112ZM295.551 111V3.71999H293.551V111H295.551ZM294.551 2.71999H270.07V4.71999H294.551V2.71999ZM269.07 3.71999V39.288H271.07V3.71999H269.07ZM269.07 39.288C269.07 52.1781 271.242 67.671 272.533 79.0012L274.52 78.7748C273.219 67.353 271.07 52.0299 271.07 39.288H269.07ZM273.526 77.888H272.807V79.888H273.526V77.888ZM273.721 78.4834L263.209 54.7234L261.38 55.5326L271.892 79.2926L273.721 78.4834ZM263.182 54.6679L236.542 3.25989L234.767 4.18009L261.407 55.5881L263.182 54.6679ZM235.654 2.71999H209.447V4.71999H235.654V2.71999ZM208.447 3.71999V111H210.447V3.71999H208.447ZM340.151 111H339.151V112H340.151V111ZM365.927 111V112H366.927V111H365.927ZM365.927 25.176V24.176H364.927V25.176H365.927ZM395.015 25.176V26.176H396.015V25.176H395.015ZM395.015 3.71999H396.015V2.71999H395.015V3.71999ZM311.207 3.71999V2.71999H310.207V3.71999H311.207ZM311.207 25.176H310.207V26.176H311.207V25.176ZM340.151 25.176H341.151V24.176H340.151V25.176ZM340.151 112H365.927V110H340.151V112ZM366.927 111V25.176H364.927V111H366.927ZM365.927 26.176H395.015V24.176H365.927V26.176ZM396.015 25.176V3.71999H394.015V25.176H396.015ZM395.015 2.71999H311.207V4.71999H395.015V2.71999ZM310.207 3.71999V25.176H312.207V3.71999H310.207ZM311.207 26.176H340.151V24.176H311.207V26.176ZM339.151 25.176V111H341.151V25.176H339.151ZM430.979 57.432L430.011 57.1833L430.01 57.1858L430.979 57.432ZM439.187 23.016V22.016H438.392L438.213 22.7911L439.187 23.016ZM439.763 23.016L440.73 22.7615L440.534 22.016H439.763V23.016ZM448.259 57.432L449.228 57.1858L449.227 57.1785L449.225 57.1711L448.259 57.432ZM450.563 66.504V67.504H451.849L451.532 66.2578L450.563 66.504ZM428.675 66.504L427.706 66.2578L427.39 67.504H428.675V66.504ZM391.379 111L390.424 110.704L390.022 112H391.379V111ZM417.587 111V112H418.367L418.557 111.244L417.587 111ZM423.779 86.376V85.376H423L422.809 86.1321L423.779 86.376ZM455.459 86.376L456.429 86.1321L456.239 85.376H455.459V86.376ZM461.651 111L460.681 111.244L460.872 112H461.651V111ZM488.723 111V112H490.08L489.678 110.704L488.723 111ZM455.459 3.71999L456.414 3.42383L456.196 2.71999H455.459V3.71999ZM424.643 3.71999V2.71999H423.906L423.688 3.42383L424.643 3.71999ZM431.948 57.6807C434.688 47.0102 437.571 34.4689 440.162 23.2409L438.213 22.7911C435.62 34.0271 432.743 46.5418 430.011 57.1833L431.948 57.6807ZM439.187 24.016H439.763V22.016H439.187V24.016ZM438.796 23.2705C440.232 28.7284 441.633 34.6554 443.038 40.5634C444.442 46.4653 445.849 52.3479 447.294 57.6929L449.225 57.1711C447.789 51.8601 446.389 46.0067 444.984 40.1006C443.581 34.2006 442.174 28.2476 440.73 22.7615L438.796 23.2705ZM447.29 57.6782L449.594 66.7502L451.532 66.2578L449.228 57.1858L447.29 57.6782ZM450.563 65.504H428.675V67.504H450.563V65.504ZM429.644 66.7502L431.948 57.6782L430.01 57.1858L427.706 66.2578L429.644 66.7502ZM391.379 112H417.587V110H391.379V112ZM418.557 111.244L424.749 86.6199L422.809 86.1321L416.617 110.756L418.557 111.244ZM423.779 87.376H455.459V85.376H423.779V87.376ZM454.489 86.6199L460.681 111.244L462.621 110.756L456.429 86.1321L454.489 86.6199ZM461.651 112H488.723V110H461.651V112ZM489.678 110.704L456.414 3.42383L454.504 4.01615L487.768 111.296L489.678 110.704ZM455.459 2.71999H424.643V4.71999H455.459V2.71999ZM423.688 3.42383L390.424 110.704L392.334 111.296L425.598 4.01615L423.688 3.42383ZM578.642 97.176L579.399 97.8293L579.955 97.185L579.408 96.5331L578.642 97.176ZM565.106 81.048L565.872 80.4051L565.141 79.534L564.371 80.3705L565.106 81.048ZM563.666 32.232L562.999 32.9772L563.779 33.6752L564.441 32.8641L563.666 32.232ZM577.058 15.816L577.833 16.4481L578.399 15.7547L577.772 15.1158L577.058 15.816ZM543.65 114.016C557.9 114.016 570.132 108.568 579.399 97.8293L577.885 96.5226C569.009 106.808 557.336 112.016 543.65 112.016V114.016ZM579.408 96.5331L565.872 80.4051L564.34 81.6909L577.876 97.8189L579.408 96.5331ZM564.371 80.3705C559.451 85.7118 552.931 89.84 544.658 89.84V91.84C553.665 91.84 560.681 87.3282 565.842 81.7255L564.371 80.3705ZM544.658 89.84C537.403 89.84 531.474 86.8839 527.331 81.3824C523.164 75.8496 520.746 67.6617 520.746 57.144H518.746C518.746 67.9383 521.224 76.5984 525.733 82.5856C530.266 88.604 536.794 91.84 544.658 91.84V89.84ZM520.746 57.144C520.746 36.5981 531.87 24.88 544.946 24.88V22.88C530.375 22.88 518.746 35.9299 518.746 57.144H520.746ZM544.946 24.88C552.223 24.88 557.608 28.1534 562.999 32.9772L564.333 31.4867C558.78 26.5186 552.934 22.88 544.946 22.88V24.88ZM564.441 32.8641L577.833 16.4481L576.283 15.1839L562.891 31.5999L564.441 32.8641ZM577.772 15.1158C570.282 7.47865 558.805 0.848 544.514 0.848V2.848C558.159 2.848 569.147 9.17734 576.344 16.5162L577.772 15.1158ZM544.514 0.848C530.653 0.848 517.611 6.05737 508.034 15.8363C498.453 25.6199 492.394 39.9209 492.394 58.008H494.394C494.394 40.3831 500.288 26.6041 509.463 17.2357C518.642 7.86263 531.159 2.848 544.514 2.848V0.848ZM492.394 58.008C492.394 76.3702 498.229 90.3914 507.607 99.825C516.981 109.254 529.812 114.016 543.65 114.016V112.016C530.273 112.016 517.976 107.418 509.025 98.415C500.08 89.4166 494.394 75.9338 494.394 58.008H492.394ZM613.245 111H612.245V112H613.245V111ZM639.021 111V112H640.021V111H639.021ZM639.021 25.176V24.176H638.021V25.176H639.021ZM668.109 25.176V26.176H669.109V25.176H668.109ZM668.109 3.71999H669.109V2.71999H668.109V3.71999ZM584.301 3.71999V2.71999H583.301V3.71999H584.301ZM584.301 25.176H583.301V26.176H584.301V25.176ZM613.245 25.176H614.245V24.176H613.245V25.176ZM613.245 112H639.021V110H613.245V112ZM640.021 111V25.176H638.021V111H640.021ZM639.021 26.176H668.109V24.176H639.021V26.176ZM669.109 25.176V3.71999H667.109V25.176H669.109ZM668.109 2.71999H584.301V4.71999H668.109V2.71999ZM583.301 3.71999V25.176H585.301V3.71999H583.301ZM584.301 26.176H613.245V24.176H584.301V26.176ZM612.245 25.176V111H614.245V25.176H612.245Z" fill="#4143A5" fill-opacity="0.4"/>
</svg>
