<svg width="223" height="55" viewBox="0 0 223 55" fill="none" xmlns="http://www.w3.org/2000/svg">
<path opacity="0.7" d="M25.7305 39.0781L24.7657 39.3412L25.7288 42.8737L26.695 39.342L25.7305 39.0781ZM35.9258 1.8125V0.8125H35.1626L34.9612 1.54861L35.9258 1.8125ZM49.707 1.8125L50.6548 2.13146L51.0987 0.8125H49.707V1.8125ZM32.4805 53V54H33.199L33.4282 53.319L32.4805 53ZM18.9805 53L18.0319 53.3166L18.26 54H18.9805V53ZM1.89453 1.8125V0.8125H0.506503L0.945978 2.12912L1.89453 1.8125ZM15.5703 1.8125L16.5351 1.54946L16.3342 0.8125H15.5703V1.8125ZM26.695 39.342L36.8903 2.07639L34.9612 1.54861L24.7659 38.8142L26.695 39.342ZM35.9258 2.8125H49.707V0.8125H35.9258V2.8125ZM48.7593 1.49354L31.5327 52.681L33.4282 53.319L50.6548 2.13146L48.7593 1.49354ZM32.4805 52H18.9805V54H32.4805V52ZM19.929 52.6834L2.84308 1.49588L0.945978 2.12912L18.0319 53.3166L19.929 52.6834ZM1.89453 2.8125H15.5703V0.8125H1.89453V2.8125ZM14.6055 2.07554L24.7657 39.3412L26.6953 38.8151L16.5351 1.54946L14.6055 2.07554ZM79.8711 43.4375L80.8256 43.1392L80.6063 42.4375H79.8711V43.4375ZM62.9609 43.4375V42.4375H62.2232L62.0055 43.1424L62.9609 43.4375ZM60.0078 53V54H60.7456L60.9633 53.2951L60.0078 53ZM46.8242 53L45.8854 52.6557L45.3923 54H46.8242V53ZM65.5977 1.8125V0.8125H64.8993L64.6588 1.46817L65.5977 1.8125ZM77.1992 1.8125L78.1372 1.4659L77.8958 0.8125H77.1992V1.8125ZM96.1133 53V54H97.5489L97.0513 52.6534L96.1133 53ZM82.8594 53L81.9049 53.2983L82.1242 54H82.8594V53ZM65.9141 33.9102L64.9586 33.615L64.5585 34.9102H65.9141V33.9102ZM76.918 33.9102V34.9102H78.2761L77.8729 33.6133L76.918 33.9102ZM71.3984 16.1562L72.3534 15.8594L71.3954 12.778L70.443 15.8611L71.3984 16.1562ZM79.8711 42.4375H62.9609V44.4375H79.8711V42.4375ZM62.0055 43.1424L59.0523 52.7049L60.9633 53.2951L63.9164 43.7326L62.0055 43.1424ZM60.0078 52H46.8242V54H60.0078V52ZM47.7631 53.3443L66.5365 2.15683L64.6588 1.46817L45.8854 52.6557L47.7631 53.3443ZM65.5977 2.8125H77.1992V0.8125H65.5977V2.8125ZM76.2612 2.1591L95.1753 53.3466L97.0513 52.6534L78.1372 1.4659L76.2612 2.1591ZM96.1133 52H82.8594V54H96.1133V52ZM83.8139 52.7017L80.8256 43.1392L78.9166 43.7358L81.9049 53.2983L83.8139 52.7017ZM65.9141 34.9102H76.918V32.9102H65.9141V34.9102ZM77.8729 33.6133L72.3534 15.8594L70.4435 16.4531L75.9631 34.207L77.8729 33.6133ZM70.443 15.8611L64.9586 33.615L66.8695 34.2053L72.3539 16.4514L70.443 15.8611ZM112.215 43.5078H111.215V44.5078H112.215V43.5078ZM133.695 43.5078H134.695V42.5078H133.695V43.5078ZM133.695 53V54H134.695V53H133.695ZM99.875 53H98.875V54H99.875V53ZM99.875 1.8125V0.8125H98.875V1.8125H99.875ZM112.215 1.8125H113.215V0.8125H112.215V1.8125ZM112.215 44.5078H133.695V42.5078H112.215V44.5078ZM132.695 43.5078V53H134.695V43.5078H132.695ZM133.695 52H99.875V54H133.695V52ZM100.875 53V1.8125H98.875V53H100.875ZM99.875 2.8125H112.215V0.8125H99.875V2.8125ZM111.215 1.8125V43.5078H113.215V1.8125H111.215ZM178.203 1.8125H179.203V0.8125H178.203V1.8125ZM175.777 45.1953L176.641 45.7001L176.642 45.6969L175.777 45.1953ZM137.879 35.5625H136.879L136.879 35.575L137.879 35.5625ZM137.879 1.8125V0.8125H136.879V1.8125H137.879ZM150.289 1.8125H151.289V0.8125H150.289V1.8125ZM150.289 35.8086H149.289V35.8211L149.289 35.8337L150.289 35.8086ZM165.863 1.8125V0.8125H164.863V1.8125H165.863ZM177.203 1.8125V35.3164H179.203V1.8125H177.203ZM177.203 35.3164C177.203 38.9686 176.426 42.0822 174.912 44.6937L176.642 45.6969C178.363 42.7303 179.203 39.2579 179.203 35.3164H177.203ZM174.914 44.6905C173.402 47.2757 171.236 49.2511 168.383 50.6221L169.25 52.4247C172.444 50.8896 174.918 48.6462 176.641 45.7001L174.914 44.6905ZM168.383 50.6221C165.522 51.9971 162.103 52.7031 158.094 52.7031V54.7031C162.335 54.7031 166.064 53.956 169.25 52.4247L168.383 50.6221ZM158.094 52.7031C152.033 52.7031 147.387 51.134 144.033 48.109L142.694 49.5941C146.512 53.0379 151.686 54.7031 158.094 54.7031V52.7031ZM144.033 48.109C140.689 45.0925 138.946 40.9465 138.879 35.55L136.879 35.575C136.952 41.4285 138.866 46.1418 142.694 49.5941L144.033 48.109ZM138.879 35.5625V1.8125H136.879V35.5625H138.879ZM137.879 2.8125H150.289V0.8125H137.879V2.8125ZM149.289 1.8125V35.8086H151.289V1.8125H149.289ZM149.289 35.8337C149.363 38.767 150.084 41.1444 151.613 42.7909C153.159 44.4552 155.379 45.2109 158.094 45.2109V43.2109C155.746 43.2109 154.134 42.5663 153.078 41.4298C152.006 40.2755 151.356 38.4517 151.289 35.7835L149.289 35.8337ZM158.094 45.2109C160.831 45.2109 163.068 44.4532 164.626 42.7839L163.163 41.4192C162.096 42.5625 160.466 43.2109 158.094 43.2109V45.2109ZM164.626 42.7839C166.193 41.1044 166.863 38.5097 166.863 35.2461H164.863C164.863 38.3106 164.221 40.2862 163.163 41.4192L164.626 42.7839ZM166.863 35.2461V1.8125H164.863V35.2461H166.863ZM165.863 2.8125H178.203V0.8125H165.863V2.8125ZM217.684 31.3086V32.3086H218.684V31.3086H217.684ZM198.277 31.3086V30.3086H197.277V31.3086H198.277ZM198.277 43.5078H197.277V44.5078H198.277V43.5078ZM221.199 43.5078H222.199V42.5078H221.199V43.5078ZM221.199 53V54H222.199V53H221.199ZM185.938 53H184.938V54H185.938V53ZM185.938 1.8125V0.8125H184.938V1.8125H185.938ZM221.27 1.8125H222.27V0.8125H221.27V1.8125ZM221.27 11.3398V12.3398H222.27V11.3398H221.27ZM198.277 11.3398V10.3398H197.277V11.3398H198.277ZM198.277 22.1328H197.277V23.1328H198.277V22.1328ZM217.684 22.1328H218.684V21.1328H217.684V22.1328ZM217.684 30.3086H198.277V32.3086H217.684V30.3086ZM197.277 31.3086V43.5078H199.277V31.3086H197.277ZM198.277 44.5078H221.199V42.5078H198.277V44.5078ZM220.199 43.5078V53H222.199V43.5078H220.199ZM221.199 52H185.938V54H221.199V52ZM186.938 53V1.8125H184.938V53H186.938ZM185.938 2.8125H221.27V0.8125H185.938V2.8125ZM220.27 1.8125V11.3398H222.27V1.8125H220.27ZM221.27 10.3398H198.277V12.3398H221.27V10.3398ZM197.277 11.3398V22.1328H199.277V11.3398H197.277ZM198.277 23.1328H217.684V21.1328H198.277V23.1328ZM216.684 22.1328V31.3086H218.684V22.1328H216.684Z" fill="white"/>
</svg>
