<svg width="689" height="108" viewBox="0 0 689 108" fill="none" xmlns="http://www.w3.org/2000/svg">
<path opacity="0.7" d="M87.5625 70.3359L88.5614 70.3819L88.6096 69.3359H87.5625V70.3359ZM81.7969 89.25L82.6366 89.793L82.6388 89.7897L81.7969 89.25ZM66.9609 101.906L66.5351 101.001L66.5326 101.003L66.9609 101.906ZM7.05469 24.7734L6.14821 24.3512L6.14706 24.3537L7.05469 24.7734ZM22.1719 7.33594L22.6997 8.18531L22.704 8.18258L22.1719 7.33594ZM74.9062 10.9922L74.2501 11.7468L74.2528 11.7491L74.9062 10.9922ZM87.7734 37.9922V38.9922H88.8673L88.7694 37.9027L87.7734 37.9922ZM63.1641 37.9922L62.1645 38.0222L62.1937 38.9922H63.1641V37.9922ZM26.9531 49.3828L25.9531 49.3689V49.3828H26.9531ZM31.0312 80.0391L30.1662 80.5408L30.17 80.5472L31.0312 80.0391ZM63.0234 70.3359V69.3359H62.0552L62.024 70.3037L63.0234 70.3359ZM86.5636 70.2899C86.2427 77.2566 84.367 83.3877 80.955 88.7103L82.6388 89.7897C86.258 84.1436 88.226 77.6653 88.5614 70.3819L86.5636 70.2899ZM80.9571 88.707C77.5518 93.9739 72.7565 98.0737 66.5351 101.001L67.3867 102.811C73.9154 99.7388 79.0107 95.4011 82.6366 89.793L80.9571 88.707ZM66.5326 101.003C60.3587 103.93 53.2667 105.406 45.2344 105.406V107.406C53.5145 107.406 60.907 105.883 67.3893 102.81L66.5326 101.003ZM45.2344 105.406C32.0203 105.406 21.718 101.113 14.203 92.5962L12.7033 93.9194C20.657 102.934 31.5422 107.406 45.2344 107.406V105.406ZM14.203 92.5962C6.68075 84.071 2.85156 71.9635 2.85156 56.1328H0.851562C0.851562 72.2709 4.75675 84.9134 12.7033 93.9194L14.203 92.5962ZM2.85156 56.1328V51.0703H0.851562V56.1328H2.85156ZM2.85156 51.0703C2.85156 41.1536 4.56601 32.5366 7.96231 25.1932L6.14706 24.3537C2.60586 32.0103 0.851562 40.9245 0.851562 51.0703H2.85156ZM7.96116 25.1957C11.4014 17.8107 16.3151 12.1529 22.6997 8.1853L21.6441 6.48658C14.9036 10.6753 9.73924 16.6424 6.14822 24.3512L7.96116 25.1957ZM22.704 8.18258C29.0896 4.16883 36.4945 2.14844 44.9531 2.14844V0.148438C36.1617 0.148438 28.3792 2.25305 21.6397 6.4893L22.704 8.18258ZM44.9531 2.14844C57.1944 2.14844 66.9262 5.37819 74.2501 11.7468L75.5624 10.2376C67.7926 3.48119 57.5556 0.148438 44.9531 0.148438V2.14844ZM74.2528 11.7491C81.5724 18.0685 85.7655 26.8122 86.7774 38.0816L88.7694 37.9027C87.7189 26.2034 83.3339 16.9471 75.5597 10.2353L74.2528 11.7491ZM87.7734 36.9922H63.1641V38.9922H87.7734V36.9922ZM64.1636 37.9621C63.9724 31.6044 62.3678 26.8072 59.1304 23.8268L57.7758 25.2982C60.4447 27.7553 61.9807 31.9112 62.1645 38.0222L64.1636 37.9621ZM59.1304 23.8268C55.9183 20.8696 51.1271 19.4844 44.9531 19.4844V21.4844C50.8729 21.4844 55.0817 22.8179 57.7758 25.2982L59.1304 23.8268ZM44.9531 19.4844C38.5222 19.4844 33.6734 21.9156 30.6042 26.8466L32.3021 27.9034C34.9516 23.6469 39.1028 21.4844 44.9531 21.4844V19.4844ZM30.6042 26.8466C27.5966 31.6783 26.0945 39.2417 25.9532 49.3689L27.953 49.3968C28.093 39.3676 29.5909 32.2592 32.3021 27.9034L30.6042 26.8466ZM25.9531 49.3828V56.625H27.9531V49.3828H25.9531ZM25.9531 56.625C25.9531 67.5776 27.3071 75.6112 30.1662 80.5408L31.8963 79.5373C29.3179 75.0919 27.9531 67.5162 27.9531 56.625H25.9531ZM30.17 80.5472C33.1592 85.6137 38.2729 88.0703 45.2344 88.0703V86.0703C38.7896 86.0703 34.4345 83.8394 31.8925 79.5309L30.17 80.5472ZM45.2344 88.0703C51.051 88.0703 55.6609 86.7006 58.9073 83.8093L57.5771 82.3157C54.8235 84.7682 50.7615 86.0703 45.2344 86.0703V88.0703ZM58.9073 83.8093C62.189 80.8865 63.8306 76.3308 64.0229 70.3682L62.024 70.3037C61.8413 75.9661 60.2954 79.8948 57.5771 82.3157L58.9073 83.8093ZM63.0234 71.3359H87.5625V69.3359H63.0234V71.3359ZM164.555 100.219L165.074 101.074L165.075 101.073L164.555 100.219ZM118.078 100.43L117.565 101.288L117.57 101.291L118.078 100.43ZM102.258 83.2031L101.365 83.6526L101.367 83.6571L102.258 83.2031ZM96.3516 57.5391H95.3516V57.5488L95.3518 57.5585L96.3516 57.5391ZM101.836 25.2656L100.935 24.8316L100.934 24.834L101.836 25.2656ZM117.656 7.47656L117.138 6.62113L117.136 6.6227L117.656 7.47656ZM180.164 25.0547L179.266 25.4953L179.27 25.5019L180.164 25.0547ZM185.93 51.2109H186.93L186.93 51.2062L185.93 51.2109ZM155.695 28.5L154.852 29.0374L154.858 29.046L155.695 28.5ZM121.523 48.3984L120.524 48.3606L120.524 48.3748L120.523 48.3891L121.523 48.3984ZM121.453 55.9219L120.453 55.9125V55.9219H121.453ZM160.828 56.3438L161.828 56.3485V56.3438H160.828ZM184.93 55.9219C184.93 65.7814 183.102 74.4648 179.474 81.9957L181.276 82.8637C185.054 75.0196 186.93 66.0311 186.93 55.9219H184.93ZM179.474 81.9957C175.849 89.5213 170.702 95.3 164.034 99.3649L165.075 101.073C172.094 96.7938 177.495 90.7131 181.276 82.8637L179.474 81.9957ZM164.036 99.3639C157.41 103.385 149.835 105.406 141.281 105.406V107.406C150.165 107.406 158.105 105.303 165.074 101.074L164.036 99.3639ZM141.281 105.406C132.721 105.406 125.166 103.452 118.586 99.5685L117.57 101.291C124.491 105.376 132.404 107.406 141.281 107.406V105.406ZM118.591 99.5712C112.013 95.6427 106.866 90.0457 103.149 82.7492L101.367 83.6571C105.243 91.2668 110.643 97.1542 117.565 101.288L118.591 99.5712ZM103.151 82.7537C99.4781 75.4536 97.5364 67.0499 97.3514 57.5196L95.3518 57.5585C95.5417 67.3407 97.5375 76.0464 101.365 83.6526L103.151 82.7537ZM97.3516 57.5391V51.7734H95.3516V57.5391H97.3516ZM97.3516 51.7734C97.3516 41.8643 99.157 33.1805 102.738 25.6973L100.934 24.834C97.2023 32.632 95.3516 41.6201 95.3516 51.7734H97.3516ZM102.737 25.6996C106.362 18.1741 111.508 12.3954 118.177 8.33042L117.136 6.6227C110.117 10.9015 104.716 16.9822 100.935 24.8316L102.737 25.6996ZM118.174 8.33199C124.895 4.26297 132.541 2.21875 141.141 2.21875V0.21875C132.209 0.21875 124.199 2.34641 117.138 6.62113L118.174 8.33199ZM141.141 2.21875C149.647 2.21875 157.199 4.23958 163.825 8.26113L164.863 6.55137C157.895 2.32292 149.978 0.21875 141.141 0.21875V2.21875ZM163.825 8.26113C170.447 12.28 175.594 18.0135 179.266 25.4953L181.062 24.6141C177.234 16.8147 171.834 10.7825 164.863 6.55137L163.825 8.26113ZM179.27 25.5019C182.988 32.9379 184.883 41.5011 184.93 51.2157L186.93 51.2062C186.882 41.2333 184.934 32.359 181.058 24.6075L179.27 25.5019ZM184.93 51.2109V55.9219H186.93V51.2109H184.93ZM161.828 51.6328C161.828 41.3766 160.108 33.4387 156.533 27.954L154.858 29.046C158.126 34.0613 159.828 41.5453 159.828 51.6328H161.828ZM156.539 27.9626C152.978 22.375 147.807 19.5547 141.141 19.5547V21.5547C147.13 21.5547 151.662 24.0313 154.852 29.0374L156.539 27.9626ZM141.141 19.5547C134.662 19.5547 129.613 22.0063 126.138 26.9397C122.707 31.8096 120.879 38.9972 120.524 48.3606L122.523 48.4363C122.871 39.2372 124.665 32.5029 127.773 28.0916C130.836 23.7437 135.244 21.5547 141.141 21.5547V19.5547ZM120.523 48.3891L120.453 55.9125L122.453 55.9312L122.523 48.4078L120.523 48.3891ZM120.453 55.9219C120.453 66.04 122.127 73.9646 125.594 79.58L127.296 78.5294C124.107 73.3635 122.453 65.8662 122.453 55.9219H120.453ZM125.594 79.58C129.113 85.2783 134.387 88.1406 141.281 88.1406V86.1406C135.05 86.1406 130.434 83.6123 127.296 78.5294L125.594 79.58ZM141.281 88.1406C147.86 88.1406 152.982 85.3151 156.539 79.7327L154.852 78.658C151.659 83.6693 147.171 86.1406 141.281 86.1406V88.1406ZM156.539 79.7327C160.058 74.2091 161.781 66.3743 161.828 56.3485L159.828 56.339C159.782 66.1882 158.082 73.5878 154.852 78.658L156.539 79.7327ZM161.828 56.3438V51.6328H159.828V56.3438H161.828ZM231.07 2.625L232.023 2.31951L231.8 1.625H231.07V2.625ZM253.922 73.8516L252.97 74.1571L253.923 77.1295L254.874 74.1562L253.922 73.8516ZM276.703 2.625V1.625H275.973L275.751 2.32036L276.703 2.625ZM309.188 2.625H310.188V1.625H309.188V2.625ZM309.188 105V106H310.188V105H309.188ZM284.438 105H283.438V106H284.438V105ZM284.438 81.0938L283.439 81.045L283.438 81.0693V81.0938H284.438ZM286.828 32.1562L287.827 32.205L285.881 31.8345L286.828 32.1562ZM262.078 105V106H262.794L263.025 105.322L262.078 105ZM245.766 105L244.819 105.322L245.05 106H245.766V105ZM220.945 32.0859L221.892 31.7637L219.947 32.1347L220.945 32.0859ZM223.336 81.0938H224.336V81.0694L224.335 81.045L223.336 81.0938ZM223.336 105V106H224.336V105H223.336ZM198.656 105H197.656V106H198.656V105ZM198.656 2.625V1.625H197.656V2.625H198.656ZM230.118 2.93049L252.97 74.1571L254.874 73.5461L232.023 2.31951L230.118 2.93049ZM254.874 74.1562L277.656 2.92964L275.751 2.32036L252.969 73.5469L254.874 74.1562ZM276.703 3.625H309.188V1.625H276.703V3.625ZM308.188 2.625V105H310.188V2.625H308.188ZM309.188 104H284.438V106H309.188V104ZM285.438 105V81.0938H283.438V105H285.438ZM285.436 81.1425L287.827 32.205L285.829 32.1075L283.439 81.045L285.436 81.1425ZM285.881 31.8345L261.131 104.678L263.025 105.322L287.775 32.478L285.881 31.8345ZM262.078 104H245.766V106H262.078V104ZM246.712 104.678L221.892 31.7637L219.999 32.4082L244.819 105.322L246.712 104.678ZM219.947 32.1347L222.337 81.1425L224.335 81.045L221.944 32.0372L219.947 32.1347ZM222.336 81.0938V105H224.336V81.0938H222.336ZM223.336 104H198.656V106H223.336V104ZM199.656 105V2.625H197.656V105H199.656ZM198.656 3.625H231.07V1.625H198.656V3.625ZM349.617 70.2656V69.2656H348.617V70.2656H349.617ZM349.617 105V106H350.617V105H349.617ZM324.938 105H323.938V106H324.938V105ZM324.938 2.625V1.625H323.938V2.625H324.938ZM386.531 6.98438L386.095 7.8844L386.104 7.8884L386.531 6.98438ZM400.523 19.2891L399.671 19.8124L399.677 19.8211L400.523 19.2891ZM394.758 61.3359L395.399 62.1033L395.399 62.1029L394.758 61.3359ZM349.617 51.2109H348.617V52.2109H349.617V51.2109ZM376.688 47.625L376.001 46.898L375.994 46.9044L376.688 47.625ZM366.07 21.6797L366.081 20.6797H366.07V21.6797ZM349.617 21.6797V20.6797H348.617V21.6797H349.617ZM348.617 70.2656V105H350.617V70.2656H348.617ZM349.617 104H324.938V106H349.617V104ZM325.938 105V2.625H323.938V105H325.938ZM324.938 3.625H365.789V1.625H324.938V3.625ZM365.789 3.625C373.492 3.625 380.253 5.05445 386.095 7.88436L386.967 6.08439C380.81 3.1018 373.742 1.625 365.789 1.625V3.625ZM386.104 7.8884C391.987 10.6706 396.498 14.6452 399.671 19.8123L401.376 18.7658C397.986 13.2454 393.169 9.01693 386.959 6.08035L386.104 7.8884ZM399.677 19.8211C402.897 24.946 404.516 30.7821 404.516 37.3594H406.516C406.516 30.4366 404.806 24.2259 401.37 18.757L399.677 19.8211ZM404.516 37.3594C404.516 47.0705 401.044 54.7732 394.116 60.5689L395.399 62.1029C402.815 55.8987 406.516 47.617 406.516 37.3594H404.516ZM394.117 60.5685C387.225 66.3267 377.682 69.2656 365.367 69.2656V71.2656C377.99 71.2656 388.041 68.2514 395.399 62.1033L394.117 60.5685ZM365.367 69.2656H349.617V71.2656H365.367V69.2656ZM349.617 52.2109H365.789V50.2109H349.617V52.2109ZM365.789 52.2109C370.728 52.2109 374.648 50.9752 377.381 48.3456L375.994 46.9044C373.758 49.0561 370.413 50.2109 365.789 50.2109V52.2109ZM377.374 48.352C380.153 45.7271 381.484 42.0606 381.484 37.5H379.484C379.484 41.6581 378.284 44.7416 376.001 46.898L377.374 48.352ZM381.484 37.5C381.484 32.5338 380.141 28.4541 377.36 25.3694L375.875 26.7087C378.25 29.3428 379.484 32.9037 379.484 37.5H381.484ZM377.36 25.3694C374.565 22.2693 370.765 20.7291 366.081 20.6797L366.06 22.6796C370.281 22.7241 373.513 24.0901 375.875 26.7087L377.36 25.3694ZM366.07 20.6797H349.617V22.6797H366.07V20.6797ZM348.617 21.6797V51.2109H350.617V21.6797H348.617ZM464.367 85.875L465.322 85.5767L465.102 84.875H464.367V85.875ZM430.547 85.875V84.875H429.809L429.591 85.5799L430.547 85.875ZM424.641 105V106H425.378L425.596 105.295L424.641 105ZM398.273 105L397.335 104.656L396.842 106H398.273V105ZM435.82 2.625V1.625H435.122L434.881 2.28067L435.82 2.625ZM459.023 2.625L459.961 2.2784L459.72 1.625H459.023V2.625ZM496.852 105V106H498.287L497.79 104.653L496.852 105ZM470.344 105L469.389 105.298L469.609 106H470.344V105ZM436.453 66.8203L435.498 66.5252L435.098 67.8203H436.453V66.8203ZM458.461 66.8203V67.8203H459.819L459.416 66.5234L458.461 66.8203ZM447.422 31.3125L448.377 31.0156L447.419 27.9343L446.466 31.0173L447.422 31.3125ZM464.367 84.875H430.547V86.875H464.367V84.875ZM429.591 85.5799L423.685 104.705L425.596 105.295L431.502 86.1701L429.591 85.5799ZM424.641 104H398.273V106H424.641V104ZM399.212 105.344L436.759 2.96933L434.881 2.28067L397.335 104.656L399.212 105.344ZM435.82 3.625H459.023V1.625H435.82V3.625ZM458.085 2.9716L495.914 105.347L497.79 104.653L459.961 2.2784L458.085 2.9716ZM496.852 104H470.344V106H496.852V104ZM471.298 104.702L465.322 85.5767L463.413 86.1733L469.389 105.298L471.298 104.702ZM436.453 67.8203H458.461V65.8203H436.453V67.8203ZM459.416 66.5234L448.377 31.0156L446.467 31.6094L457.506 67.1172L459.416 66.5234ZM446.466 31.0173L435.498 66.5252L437.409 67.1155L448.377 31.6077L446.466 31.0173ZM589.875 105V106H590.875V105H589.875ZM565.336 105L564.467 105.495L564.755 106H565.336V105ZM529.055 41.2969L529.924 40.802L528.055 37.5204V41.2969H529.055ZM529.055 105V106H530.055V105H529.055ZM504.375 105H503.375V106H504.375V105ZM504.375 2.625V1.625H503.375V2.625H504.375ZM529.055 2.625L529.924 2.13083L529.637 1.625H529.055V2.625ZM565.266 66.3281L564.396 66.8223L566.266 70.1109V66.3281H565.266ZM565.266 2.625V1.625H564.266V2.625H565.266ZM589.875 2.625H590.875V1.625H589.875V2.625ZM589.875 104H565.336V106H589.875V104ZM566.205 104.505L529.924 40.802L528.186 41.7918L564.467 105.495L566.205 104.505ZM528.055 41.2969V105H530.055V41.2969H528.055ZM529.055 104H504.375V106H529.055V104ZM505.375 105V2.625H503.375V105H505.375ZM504.375 3.625H529.055V1.625H504.375V3.625ZM528.185 3.11917L564.396 66.8223L566.135 65.834L529.924 2.13083L528.185 3.11917ZM566.266 66.3281V2.625H564.266V66.3281H566.266ZM565.266 3.625H589.875V1.625H565.266V3.625ZM588.875 2.625V105H590.875V2.625H588.875ZM640.992 47.0625L640.072 47.4541L640.994 49.6199L641.913 47.4529L640.992 47.0625ZM659.836 2.625V1.625H659.174L658.915 2.2346L659.836 2.625ZM686.484 2.625L687.378 3.07413L688.106 1.625H686.484V2.625ZM653.508 68.2266L652.614 67.7774L652.508 67.9894V68.2266H653.508ZM653.508 105V106H654.508V105H653.508ZM628.477 105H627.477V106H628.477V105ZM628.477 68.2266H629.477V67.9898L629.37 67.7782L628.477 68.2266ZM595.57 2.625V1.625H593.95L594.676 3.07336L595.57 2.625ZM622.078 2.625L622.998 2.23337L622.739 1.625H622.078V2.625ZM641.913 47.4529L660.757 3.0154L658.915 2.2346L640.072 46.6721L641.913 47.4529ZM659.836 3.625H686.484V1.625H659.836V3.625ZM685.591 2.17587L652.614 67.7774L654.401 68.6757L687.378 3.07413L685.591 2.17587ZM652.508 68.2266V105H654.508V68.2266H652.508ZM653.508 104H628.477V106H653.508V104ZM629.477 105V68.2266H627.477V105H629.477ZM629.37 67.7782L596.464 2.17664L594.676 3.07336L627.583 68.6749L629.37 67.7782ZM595.57 3.625H622.078V1.625H595.57V3.625ZM621.158 3.01663L640.072 47.4541L641.912 46.6709L622.998 2.23337L621.158 3.01663Z" fill="#4143A5" fill-opacity="0.4"/>
</svg>
