<svg width="107" height="442" viewBox="0 0 107 442" fill="none" xmlns="http://www.w3.org/2000/svg">
<path opacity="0.7" d="M30.8437 49.4609L30.5807 48.4961L27.0482 49.4593L30.5799 50.4255L30.8437 49.4609ZM105.375 69.8516L106.375 69.8516L106.375 69.0884L105.639 68.887L105.375 69.8516ZM105.375 97.4141L105.056 98.3618L106.375 98.8057L106.375 97.4141L105.375 97.4141ZM3 62.9609L2 62.9609L2 63.6795L2.68104 63.9087L3 62.9609ZM3 35.9609L2.68338 35.0124L2 35.2405L2 35.9609L3 35.9609ZM105.375 1.78906L106.375 1.78906L106.375 0.401033L105.058 0.840508L105.375 1.78906ZM105.375 29.1406L105.638 30.1054L106.375 29.9045L106.375 29.1406L105.375 29.1406ZM30.5799 50.4255L105.111 70.8161L105.639 68.887L31.1076 48.4964L30.5799 50.4255ZM104.375 69.8516L104.375 97.4141L106.375 97.4141L106.375 69.8516L104.375 69.8516ZM105.694 96.4663L3.31895 62.0132L2.68104 63.9087L105.056 98.3618L105.694 96.4663ZM4 62.9609L4 35.9609L2 35.9609L2 62.9609L4 62.9609ZM3.31662 36.9095L105.692 2.73761L105.058 0.840508L2.68338 35.0124L3.31662 36.9095ZM104.375 1.78906L104.375 29.1406L106.375 29.1406L106.375 1.78906L104.375 1.78906ZM105.112 28.1758L30.5807 48.4961L31.1068 50.4257L105.638 30.1054L105.112 28.1758ZM22.125 157.742L22.4233 158.697L23.125 158.477L23.125 157.742L22.125 157.742ZM22.125 123.922L23.125 123.922L23.125 123.184L22.4201 122.966L22.125 123.922ZM2.99999 118.016L1.99999 118.016L1.99999 118.753L2.70492 118.971L2.99999 118.016ZM3 91.6484L3.34433 90.7096L2 90.2165L2 91.6484L3 91.6484ZM105.375 129.195L106.375 129.195L106.375 128.497L105.719 128.256L105.375 129.195ZM105.375 152.398L105.722 153.336L106.375 153.095L106.375 152.398L105.375 152.398ZM2.99999 190.227L1.99999 190.227L1.99999 191.662L3.3466 191.165L2.99999 190.227ZM2.99999 163.719L2.70171 162.764L1.99999 162.984L1.99999 163.719L2.99999 163.719ZM41.1797 129.828L41.4748 128.873L40.1797 128.473L40.1797 129.828L41.1797 129.828ZM41.1797 151.836L40.1797 151.836L40.1797 153.194L41.4766 152.791L41.1797 151.836ZM76.6875 140.797L76.9844 141.752L80.0657 140.794L76.9826 139.841L76.6875 140.797ZM23.125 157.742L23.125 123.922L21.125 123.922L21.125 157.742L23.125 157.742ZM22.4201 122.966L3.29507 117.06L2.70492 118.971L21.8299 124.877L22.4201 122.966ZM3.99999 118.016L4 91.6484L2 91.6484L1.99999 118.016L3.99999 118.016ZM2.65567 92.5873L105.031 130.134L105.719 128.256L3.34433 90.7096L2.65567 92.5873ZM104.375 129.195L104.375 152.398L106.375 152.398L106.375 129.195L104.375 129.195ZM105.028 151.46L2.65339 189.289L3.3466 191.165L105.722 153.336L105.028 151.46ZM3.99999 190.227L3.99999 163.719L1.99999 163.719L1.99999 190.227L3.99999 190.227ZM3.29827 164.673L22.4233 158.697L21.8267 156.788L2.70171 162.764L3.29827 164.673ZM40.1797 129.828L40.1797 151.836L42.1797 151.836L42.1797 129.828L40.1797 129.828ZM41.4766 152.791L76.9844 141.752L76.3906 139.842L40.8828 150.881L41.4766 152.791ZM76.9826 139.841L41.4748 128.873L40.8845 130.784L76.3923 141.752L76.9826 139.841ZM21.9844 222.43L21.9844 221.43L20.9844 221.43L20.9844 222.43L21.9844 222.43ZM21.9844 265.391L21.9844 266.391L22.9844 266.391L22.9844 265.391L21.9844 265.391ZM2.99999 265.391L1.99999 265.391L1.99999 266.391L2.99999 266.391L2.99999 265.391ZM2.99999 197.75L2.99999 196.75L1.99999 196.75L1.99999 197.75L2.99999 197.75ZM105.375 197.75L106.375 197.75L106.375 196.75L105.375 196.75L105.375 197.75ZM105.375 222.43L105.375 223.43L106.375 223.43L106.375 222.43L105.375 222.43ZM20.9844 222.43L20.9844 265.391L22.9844 265.391L22.9844 222.43L20.9844 222.43ZM21.9844 264.391L2.99999 264.391L2.99999 266.391L21.9844 266.391L21.9844 264.391ZM3.99999 265.391L3.99999 197.75L1.99999 197.75L1.99999 265.391L3.99999 265.391ZM2.99999 198.75L105.375 198.75L105.375 196.75L2.99999 196.75L2.99999 198.75ZM104.375 197.75L104.375 222.43L106.375 222.43L106.375 197.75L104.375 197.75ZM105.375 221.43L21.9844 221.43L21.9844 223.43L105.375 223.43L105.375 221.43ZM105.375 354.406L105.375 355.406L106.375 355.406L106.375 354.406L105.375 354.406ZM18.6094 349.555L18.1046 350.418L18.1077 350.42L18.6094 349.555ZM37.875 273.758L37.875 272.758L37.8625 272.758L37.875 273.758ZM105.375 273.758L106.375 273.758L106.375 272.758L105.375 272.758L105.375 273.758ZM105.375 298.578L105.375 299.578L106.375 299.578L106.375 298.578L105.375 298.578ZM37.3828 298.578L37.3828 297.578L37.3702 297.578L37.3577 297.578L37.3828 298.578ZM105.375 329.727L106.375 329.727L106.375 328.727L105.375 328.727L105.375 329.727ZM105.375 353.406L38.3672 353.406L38.3672 355.406L105.375 355.406L105.375 353.406ZM38.3672 353.406C30.9181 353.406 24.5116 351.821 19.111 348.69L18.1077 350.42C23.8634 353.757 30.6288 355.406 38.3672 355.406L38.3672 353.406ZM19.1141 348.691C13.7633 345.563 9.6786 341.076 6.85442 335.2L5.0518 336.066C8.04012 342.284 12.3929 347.078 18.1046 350.418L19.1141 348.691ZM6.85442 335.2C4.02631 329.315 2.59374 322.321 2.59374 314.187L0.593736 314.187C0.593736 322.554 2.06741 329.857 5.0518 336.066L6.85442 335.2ZM2.59374 314.187C2.59374 301.892 5.78008 292.336 12.0394 285.396L10.5543 284.057C3.87615 291.461 0.593737 301.545 0.593736 314.187L2.59374 314.187ZM12.0394 285.396C18.2903 278.466 26.8659 274.896 37.8875 274.758L37.8625 272.758C26.384 272.901 17.241 276.643 10.5543 284.057L12.0394 285.396ZM37.875 274.758L105.375 274.758L105.375 272.758L37.875 272.758L37.875 274.758ZM104.375 273.758L104.375 298.578L106.375 298.578L106.375 273.758L104.375 273.758ZM105.375 297.578L37.3828 297.578L37.3828 299.578L105.375 299.578L105.375 297.578ZM37.3577 297.578C31.6236 297.722 27.1456 299.129 24.0987 301.959C21.034 304.805 19.5781 308.941 19.5781 314.187L21.5781 314.187C21.5781 309.309 22.923 305.781 25.4598 303.424C28.0146 301.051 31.9389 299.715 37.4079 299.578L37.3577 297.578ZM19.5781 314.187C19.5781 319.479 21.039 323.65 24.1145 326.52L25.4792 325.058C22.9297 322.678 21.5781 319.115 21.5781 314.187L19.5781 314.187ZM24.1145 326.52C27.2002 329.4 32.0802 330.727 38.5078 330.727L38.5078 328.727C32.2792 328.727 28.0185 327.428 25.4792 325.058L24.1145 326.52ZM38.5078 330.727L105.375 330.727L105.375 328.727L38.5078 328.727L38.5078 330.727ZM104.375 329.727L104.375 354.406L106.375 354.406L106.375 329.727L104.375 329.727ZM46.3828 433.367L45.3828 433.367L45.3828 434.367L46.3828 434.367L46.3828 433.367ZM46.3828 394.555L47.3828 394.555L47.3828 393.555L46.3828 393.555L46.3828 394.555ZM21.9844 394.555L21.9844 393.555L20.9844 393.555L20.9844 394.555L21.9844 394.555ZM21.9844 440.398L21.9844 441.398L22.9844 441.398L22.9844 440.398L21.9844 440.398ZM2.99998 440.398L1.99998 440.398L1.99998 441.398L2.99998 441.398L2.99998 440.398ZM2.99998 369.875L2.99998 368.875L1.99998 368.875L1.99998 369.875L2.99998 369.875ZM105.375 369.875L106.375 369.875L106.375 368.875L105.375 368.875L105.375 369.875ZM105.375 440.539L105.375 441.539L106.375 441.539L106.375 440.539L105.375 440.539ZM86.3203 440.539L85.3203 440.539L85.3203 441.539L86.3203 441.539L86.3203 440.539ZM86.3203 394.555L87.3203 394.555L87.3203 393.555L86.3203 393.555L86.3203 394.555ZM64.7344 394.555L64.7344 393.555L63.7344 393.555L63.7344 394.555L64.7344 394.555ZM64.7344 433.367L64.7344 434.367L65.7344 434.367L65.7344 433.367L64.7344 433.367ZM47.3828 433.367L47.3828 394.555L45.3828 394.555L45.3828 433.367L47.3828 433.367ZM46.3828 393.555L21.9844 393.555L21.9844 395.555L46.3828 395.555L46.3828 393.555ZM20.9844 394.555L20.9844 440.398L22.9844 440.398L22.9844 394.555L20.9844 394.555ZM21.9844 439.398L2.99998 439.398L2.99998 441.398L21.9844 441.398L21.9844 439.398ZM3.99998 440.398L3.99998 369.875L1.99998 369.875L1.99998 440.398L3.99998 440.398ZM2.99998 370.875L105.375 370.875L105.375 368.875L2.99998 368.875L2.99998 370.875ZM104.375 369.875L104.375 440.539L106.375 440.539L106.375 369.875L104.375 369.875ZM105.375 439.539L86.3203 439.539L86.3203 441.539L105.375 441.539L105.375 439.539ZM87.3203 440.539L87.3203 394.555L85.3203 394.555L85.3203 440.539L87.3203 440.539ZM86.3203 393.555L64.7344 393.555L64.7344 395.555L86.3203 395.555L86.3203 393.555ZM63.7344 394.555L63.7344 433.367L65.7344 433.367L65.7344 394.555L63.7344 394.555ZM64.7344 432.367L46.3828 432.367L46.3828 434.367L64.7344 434.367L64.7344 432.367Z" fill="white"/>
</svg>
