<svg width="108" height="468" viewBox="0 0 108 468" fill="none" xmlns="http://www.w3.org/2000/svg">
<path opacity="0.7" d="M30.8437 49.4609L30.5807 48.4961L27.0482 49.4593L30.5799 50.4255L30.8437 49.4609ZM105.375 69.8516L106.375 69.8516L106.375 69.0884L105.639 68.887L105.375 69.8516ZM105.375 97.4141L105.056 98.3618L106.375 98.8057L106.375 97.4141L105.375 97.4141ZM3 62.9609L2 62.9609L2 63.6795L2.68104 63.9087L3 62.9609ZM3 35.9609L2.68338 35.0124L2 35.2405L2 35.9609L3 35.9609ZM105.375 1.78906L106.375 1.78906L106.375 0.401033L105.058 0.840508L105.375 1.78906ZM105.375 29.1406L105.638 30.1054L106.375 29.9045L106.375 29.1406L105.375 29.1406ZM30.5799 50.4255L105.111 70.8161L105.639 68.887L31.1076 48.4964L30.5799 50.4255ZM104.375 69.8516L104.375 97.4141L106.375 97.4141L106.375 69.8516L104.375 69.8516ZM105.694 96.4663L3.31895 62.0132L2.68104 63.9087L105.056 98.3618L105.694 96.4663ZM4 62.9609L4 35.9609L2 35.9609L2 62.9609L4 62.9609ZM3.31662 36.9095L105.692 2.73761L105.058 0.840508L2.68338 35.0124L3.31662 36.9095ZM104.375 1.78906L104.375 29.1406L106.375 29.1406L106.375 1.78906L104.375 1.78906ZM105.112 28.1758L30.5807 48.4961L31.1068 50.4257L105.638 30.1054L105.112 28.1758ZM2.99999 131.234L1.99999 131.234L1.99999 132.234L2.99999 132.234L2.99999 131.234ZM3 106.625L3 105.625L2 105.625L2 106.625L3 106.625ZM105.375 106.625L106.375 106.625L106.375 105.625L105.375 105.625L105.375 106.625ZM105.375 131.234L105.375 132.234L106.375 132.234L106.375 131.234L105.375 131.234ZM3.99999 131.234L4 106.625L2 106.625L1.99999 131.234L3.99999 131.234ZM3 107.625L105.375 107.625L105.375 105.625L3 105.625L3 107.625ZM104.375 106.625L104.375 131.234L106.375 131.234L106.375 106.625L104.375 106.625ZM105.375 130.234L2.99999 130.234L2.99999 132.234L105.375 132.234L105.375 130.234ZM38.6484 197.328L37.8661 196.705L37.8606 196.712L38.6484 197.328ZM51.1641 168.148L52.0605 168.592L52.0616 168.589L51.1641 168.148ZM93 153.172L93.6068 152.377L93.6055 152.376L93 153.172ZM103.125 167.234L102.195 167.602L102.198 167.608L103.125 167.234ZM102.844 207.383L101.932 206.971L101.931 206.974L102.844 207.383ZM91.5937 221.023L91.0409 220.19L91.0372 220.193L91.5937 221.023ZM75 225.875L74 225.875L74 226.875L75 226.875L75 225.875ZM75 201.266L75 200.266L74 200.266L74 201.266L75 201.266ZM84.7031 197.398L83.9625 196.726L83.9565 196.733L84.7031 197.398ZM85.1953 176.586L84.3989 177.191L84.4005 177.193L85.1953 176.586ZM70.6406 177.008L69.847 176.399L69.8406 176.408L70.6406 177.008ZM64.0312 191.844L63.0801 191.535L63.0782 191.541L64.0312 191.844ZM56.7187 209.281L55.8527 208.781L55.8523 208.782L56.7187 209.281ZM6.02343 165.406L5.11065 164.998L5.10728 165.005L6.02343 165.406ZM18.2578 150.219L17.7136 149.38L17.7049 149.386L18.2578 150.219ZM36.1875 145.156L37.1875 145.156L37.1875 144.156L36.1875 144.156L36.1875 145.156ZM36.1875 169.906L36.1875 170.906L37.1875 170.906L37.1875 169.906L36.1875 169.906ZM24.0234 174.125L23.2924 173.443L23.2865 173.449L23.2807 173.455L24.0234 174.125ZM22.7578 197.609L21.954 198.204L21.9559 198.207L22.7578 197.609ZM30.2109 202.195C34.0918 202.195 37.2098 200.792 39.4362 197.944L37.8606 196.712C36.0558 199.021 33.5488 200.195 30.2109 200.195L30.2109 202.195ZM39.4307 197.951C41.562 195.275 43.6924 190.655 45.8542 184.217L43.9583 183.58C41.8076 189.985 39.7661 194.319 37.8661 196.705L39.4307 197.951ZM45.8542 184.217C48.0023 177.819 50.072 172.615 52.0605 168.592L50.2676 167.705C48.2249 171.838 46.1226 177.134 43.9583 183.58L45.8542 184.217ZM52.0616 168.589C58.4684 155.545 67.1323 149.25 78.0234 149.25L78.0234 147.25C66.1333 147.25 56.8909 154.22 50.2665 167.708L52.0616 168.589ZM78.0234 149.25C83.4875 149.25 88.2646 150.825 92.3945 153.968L93.6055 152.376C89.1104 148.956 83.9031 147.25 78.0234 147.25L78.0234 149.25ZM92.3932 153.967C96.5831 157.166 99.8588 161.693 102.195 167.602L104.055 166.867C101.61 160.682 98.1356 155.834 93.6068 152.377L92.3932 153.967ZM102.198 167.608C104.58 173.519 105.781 180.186 105.781 187.625L107.781 187.625C107.781 179.97 106.545 173.043 104.052 166.861L102.198 167.608ZM105.781 187.625C105.781 194.864 104.491 201.307 101.932 206.971L103.755 207.794C106.447 201.834 107.781 195.105 107.781 187.625L105.781 187.625ZM101.931 206.974C99.3757 212.678 95.743 217.07 91.0409 220.19L92.1466 221.857C97.1944 218.508 101.062 213.806 103.756 207.792L101.931 206.974ZM91.0372 220.193C86.3859 223.309 81.0513 224.875 75 224.875L75 226.875C81.4174 226.875 87.1454 225.207 92.1503 221.854L91.0372 220.193ZM76 225.875L76 201.266L74 201.266L74 225.875L76 225.875ZM75 202.266C79.3925 202.266 82.924 200.899 85.4498 198.064L83.9565 196.733C81.8885 199.054 78.9513 200.266 75 200.266L75 202.266ZM85.4437 198.07C87.9496 195.309 89.1484 191.6 89.1484 187.062L87.1484 187.062C87.1484 191.244 86.0504 194.426 83.9626 196.726L85.4437 198.07ZM89.1484 187.062C89.1484 182.515 88.1324 178.785 85.9901 175.979L84.4005 177.193C86.1957 179.544 87.1484 182.798 87.1484 187.062L89.1484 187.062ZM85.9918 175.981C83.8939 173.218 81.1462 171.789 77.8125 171.789L77.8125 173.789C80.4788 173.789 82.653 174.891 84.3989 177.191L85.9918 175.981ZM77.8125 171.789C74.7756 171.789 72.1213 173.433 69.847 176.399L71.4342 177.616C73.4725 174.958 75.5994 173.789 77.8125 173.789L77.8125 171.789ZM69.8406 176.408C67.6255 179.361 65.3817 184.442 63.0801 191.535L64.9824 192.152C67.2746 185.089 69.437 180.279 71.4406 177.608L69.8406 176.408ZM63.0782 191.541C60.8418 198.576 58.4303 204.316 55.8527 208.781L57.5848 209.781C60.2572 205.152 62.7206 199.268 64.9843 192.147L63.0782 191.541ZM55.8523 208.782C49.6259 219.587 41.141 224.875 30.3516 224.875L30.3516 226.875C41.9684 226.875 51.0616 221.101 57.5852 209.781L55.8523 208.782ZM30.3516 224.875C21.6906 224.875 14.9632 221.63 10.0551 215.146L8.46047 216.354C13.7712 223.37 21.1062 226.875 30.3516 226.875L30.3516 224.875ZM10.0551 215.146C5.11991 208.627 2.59374 199.607 2.59374 187.977L0.593742 187.977C0.593741 199.877 3.17695 209.373 8.46047 216.354L10.0551 215.146ZM2.59374 187.977C2.59374 179.8 4.04833 172.416 6.93958 165.807L5.10728 165.005C2.09228 171.897 0.593742 179.559 0.593742 187.977L2.59374 187.977ZM6.93618 165.815C9.87349 159.252 13.8396 154.351 18.8108 151.052L17.7049 149.386C12.3635 152.93 8.17338 158.155 5.11068 164.998L6.93618 165.815ZM18.802 151.058C23.8288 147.797 29.6129 146.156 36.1875 146.156L36.1875 144.156C29.2621 144.156 23.0931 145.89 17.7136 149.38L18.802 151.058ZM35.1875 145.156L35.1875 169.906L37.1875 169.906L37.1875 145.156L35.1875 145.156ZM36.1875 168.906C30.5461 168.906 26.1753 170.354 23.2924 173.443L24.7545 174.807C27.1216 172.271 30.8601 170.906 36.1875 170.906L36.1875 168.906ZM23.2807 173.455C20.4578 176.586 19.1562 181.506 19.1562 187.977L21.1562 187.977C21.1562 181.697 22.4329 177.382 24.7661 174.795L23.2807 173.455ZM19.1562 187.977C19.1562 192.186 20.0503 195.632 21.954 198.204L23.5616 197.015C21.9966 194.9 21.1562 191.924 21.1562 187.977L19.1562 187.977ZM21.9559 198.207C23.9406 200.87 26.733 202.195 30.2109 202.195L30.2109 200.195C27.3138 200.195 25.1375 199.129 23.5597 197.012L21.9559 198.207ZM2.99999 264.828L1.99999 264.828L1.99999 265.828L2.99999 265.828L2.99999 264.828ZM2.99999 240.219L2.99999 239.219L1.99999 239.219L1.99999 240.219L2.99999 240.219ZM105.375 240.219L106.375 240.219L106.375 239.219L105.375 239.219L105.375 240.219ZM105.375 264.828L105.375 265.828L106.375 265.828L106.375 264.828L105.375 264.828ZM3.99999 264.828L3.99999 240.219L1.99999 240.219L1.99999 264.828L3.99999 264.828ZM2.99999 241.219L105.375 241.219L105.375 239.219L2.99999 239.219L2.99999 241.219ZM104.375 240.219L104.375 264.828L106.375 264.828L106.375 240.219L104.375 240.219ZM105.375 263.828L2.99999 263.828L2.99999 265.828L105.375 265.828L105.375 263.828ZM7.78123 347.305L6.92635 347.824L6.92737 347.825L7.78123 347.305ZM7.5703 300.828L6.71175 300.315L6.70914 300.32L7.5703 300.828ZM24.7969 285.008L24.3474 284.114L24.3429 284.117L24.7969 285.008ZM50.4609 279.102L50.4609 278.102L50.4512 278.102L50.4415 278.102L50.4609 279.102ZM82.7344 284.586L83.1683 283.685L83.166 283.684L82.7344 284.586ZM100.523 300.406L101.379 299.888L101.377 299.886L100.523 300.406ZM82.9453 362.914L82.5047 362.016L82.4981 362.02L82.9453 362.914ZM56.789 368.68L56.789 369.68L56.7938 369.68L56.789 368.68ZM79.5 338.445L78.9626 337.602L78.9539 337.608L79.5 338.445ZM59.6015 304.273L59.6394 303.274L59.6252 303.274L59.6109 303.273L59.6015 304.273ZM52.0781 304.203L52.0875 303.203L52.0781 303.203L52.0781 304.203ZM51.6562 343.578L51.6515 344.578L51.6562 344.578L51.6562 343.578ZM52.0781 367.68C42.2186 367.68 33.5352 365.852 26.0043 362.224L25.1363 364.026C32.9804 367.804 41.9689 369.68 52.0781 369.68L52.0781 367.68ZM26.0043 362.224C18.4787 358.599 12.7 353.453 8.6351 346.784L6.92737 347.825C11.2062 354.844 17.2869 360.245 25.1363 364.026L26.0043 362.224ZM8.63611 346.786C4.61508 340.16 2.59374 332.585 2.59374 324.031L0.593736 324.031C0.593736 332.915 2.69739 340.855 6.92636 347.824L8.63611 346.786ZM2.59374 324.031C2.59374 315.471 4.54791 307.916 8.43146 301.336L6.70914 300.32C2.62393 307.241 0.593736 315.154 0.593736 324.031L2.59374 324.031ZM8.42884 301.341C12.3573 294.763 17.9543 289.616 25.2508 285.899L24.3429 284.117C16.7332 287.993 10.8458 293.393 6.71176 300.315L8.42884 301.341ZM25.2463 285.901C32.5463 282.228 40.9501 280.286 50.4803 280.101L50.4415 278.102C40.6593 278.292 31.9536 280.287 24.3474 284.114L25.2463 285.901ZM50.4609 280.102L56.2266 280.102L56.2266 278.102L50.4609 278.102L50.4609 280.102ZM56.2266 280.102C66.1357 280.102 74.8195 281.907 82.3027 285.488L83.166 283.684C75.368 279.952 66.3799 278.102 56.2266 278.102L56.2266 280.102ZM82.3004 285.487C89.8259 289.112 95.6046 294.258 99.6696 300.927L101.377 299.886C97.0985 292.867 91.0178 287.466 83.1683 283.685L82.3004 285.487ZM99.668 300.924C103.737 307.645 105.781 315.291 105.781 323.891L107.781 323.891C107.781 314.959 105.654 306.949 101.379 299.888L99.668 300.924ZM105.781 323.891C105.781 332.397 103.76 339.949 99.7389 346.575L101.449 347.613C105.677 340.645 107.781 332.728 107.781 323.891L105.781 323.891ZM99.7389 346.575C95.72 353.197 89.9865 358.344 82.5047 362.016L83.3859 363.812C91.1853 359.984 97.2175 354.584 101.449 347.613L99.7389 346.575ZM82.4981 362.02C75.0621 365.738 66.4989 367.633 56.7843 367.68L56.7938 369.68C66.7667 369.632 75.641 367.684 83.3925 363.808L82.4981 362.02ZM56.789 367.68L52.0781 367.68L52.0781 369.68L56.789 369.68L56.789 367.68ZM56.3672 344.578C66.6234 344.578 74.5613 342.858 80.046 339.283L78.9539 337.608C73.9387 340.876 66.4547 342.578 56.3672 342.578L56.3672 344.578ZM80.0373 339.289C85.625 335.728 88.4453 330.557 88.4453 323.891L86.4453 323.891C86.4453 329.88 83.9687 334.412 78.9626 337.602L80.0373 339.289ZM88.4453 323.891C88.4453 317.412 85.9936 312.363 81.0603 308.888C76.1904 305.457 69.0028 303.629 59.6394 303.274L59.5637 305.273C68.7628 305.621 75.4971 307.415 79.9084 310.523C84.2563 313.586 86.4453 317.994 86.4453 323.891L88.4453 323.891ZM59.6109 303.273L52.0875 303.203L52.0688 305.203L59.5922 305.273L59.6109 303.273ZM52.0781 303.203C41.96 303.203 34.0354 304.877 28.42 308.344L29.4706 310.046C34.6364 306.857 42.1338 305.203 52.0781 305.203L52.0781 303.203ZM28.42 308.344C22.7216 311.863 19.8594 317.137 19.8594 324.031L21.8594 324.031C21.8594 317.8 24.3877 313.184 29.4706 310.046L28.42 308.344ZM19.8594 324.031C19.8594 330.61 22.6849 335.732 28.2673 339.289L29.342 337.602C24.3307 334.409 21.8594 329.921 21.8594 324.031L19.8594 324.031ZM28.2673 339.289C33.7909 342.808 41.6256 344.531 51.6515 344.578L51.661 342.578C41.8118 342.532 34.4122 340.832 29.342 337.602L28.2673 339.289ZM51.6562 344.578L56.3672 344.578L56.3672 342.578L51.6562 342.578L51.6562 344.578ZM2.99998 466.906L1.99998 466.906L1.99998 467.906L2.99998 467.906L2.99998 466.906ZM2.99998 442.367L2.50508 441.498L1.99998 441.786L1.99998 442.367L2.99998 442.367ZM66.7031 406.086L67.198 406.955L70.4795 405.086L66.7031 405.086L66.7031 406.086ZM2.99998 406.086L1.99998 406.086L1.99998 407.086L2.99998 407.086L2.99998 406.086ZM2.99998 381.406L2.99998 380.406L1.99998 380.406L1.99998 381.406L2.99998 381.406ZM105.375 381.406L106.375 381.406L106.375 380.406L105.375 380.406L105.375 381.406ZM105.375 406.086L105.869 406.955L106.375 406.668L106.375 406.086L105.375 406.086ZM41.6719 442.297L41.1777 441.428L37.8891 443.297L41.6719 443.297L41.6719 442.297ZM105.375 442.297L106.375 442.297L106.375 441.297L105.375 441.297L105.375 442.297ZM105.375 466.906L105.375 467.906L106.375 467.906L106.375 466.906L105.375 466.906ZM3.99998 466.906L3.99998 442.367L1.99998 442.367L1.99998 466.906L3.99998 466.906ZM3.49488 443.236L67.198 406.955L66.2082 405.217L2.50508 441.498L3.49488 443.236ZM66.7031 405.086L2.99998 405.086L2.99998 407.086L66.7031 407.086L66.7031 405.086ZM3.99998 406.086L3.99998 381.406L1.99998 381.406L1.99998 406.086L3.99998 406.086ZM2.99998 382.406L105.375 382.406L105.375 380.406L2.99998 380.406L2.99998 382.406ZM104.375 381.406L104.375 406.086L106.375 406.086L106.375 381.406L104.375 381.406ZM104.881 405.217L41.1777 441.428L42.166 443.166L105.869 406.955L104.881 405.217ZM41.6719 443.297L105.375 443.297L105.375 441.297L41.6719 441.297L41.6719 443.297ZM104.375 442.297L104.375 466.906L106.375 466.906L106.375 442.297L104.375 442.297ZM105.375 465.906L2.99998 465.906L2.99998 467.906L105.375 467.906L105.375 465.906Z" fill="#4143A5" fill-opacity="0.4"/>
</svg>
