<svg width="573" height="108" viewBox="0 0 573 108" fill="none" xmlns="http://www.w3.org/2000/svg">
<path opacity="0.7" d="M53.6719 69.3516L53.0489 70.1339L53.056 70.1394L53.6719 69.3516ZM24.4922 56.8359L24.9353 55.9395L24.933 55.9384L24.4922 56.8359ZM9.51562 15L8.72078 14.3932L8.7198 14.3945L9.51562 15ZM23.5781 4.875L23.9458 5.80498L23.952 5.80248L23.5781 4.875ZM63.7266 5.15625L63.315 6.06762L63.3177 6.06885L63.7266 5.15625ZM77.3672 16.4062L76.5339 16.9591L76.5364 16.9628L77.3672 16.4062ZM82.2188 33V34H83.2188V33H82.2188ZM57.6094 33H56.6094V34H57.6094V33ZM53.7422 23.2969L53.0702 24.0375L53.077 24.0435L53.7422 23.2969ZM32.9297 22.8047L33.5344 23.6011L33.5366 23.5995L32.9297 22.8047ZM33.3516 37.3594L32.7431 38.153L32.7516 38.1594L33.3516 37.3594ZM48.1875 43.9688L47.8788 44.9199L47.8846 44.9218L48.1875 43.9688ZM65.625 51.2812L65.125 52.1473L65.1257 52.1477L65.625 51.2812ZM21.75 101.977L21.3415 102.889L21.3492 102.893L21.75 101.977ZM6.5625 89.7422L5.72349 90.2864L5.72929 90.2951L6.5625 89.7422ZM1.5 71.8125V70.8125H0.5V71.8125H1.5ZM26.25 71.8125H27.25V70.8125H26.25V71.8125ZM30.4688 83.9766L29.7864 84.7076L29.7927 84.7135L29.7991 84.7193L30.4688 83.9766ZM53.9531 85.2422L54.548 86.046L54.5506 86.0441L53.9531 85.2422ZM58.5391 77.7891C58.5391 73.9082 57.1355 70.7902 54.2878 68.5638L53.056 70.1394C55.3645 71.9442 56.5391 74.4511 56.5391 77.7891H58.5391ZM54.2948 68.5693C51.6183 66.438 46.999 64.3076 40.5605 62.1458L39.9239 64.0417C46.3291 66.1924 50.663 68.2339 53.0489 70.1338L54.2948 68.5693ZM40.5605 62.1458C34.1628 59.9976 28.9587 57.928 24.9353 55.9395L24.0491 57.7324C28.182 59.7751 33.4778 61.8774 39.9239 64.0417L40.5605 62.1458ZM24.933 55.9384C11.889 49.5316 5.59375 40.8677 5.59375 29.9766H3.59375C3.59375 41.8667 10.5641 51.1091 24.0513 57.7335L24.933 55.9384ZM5.59375 29.9766C5.59375 24.5125 7.16913 19.7354 10.3115 15.6055L8.7198 14.3945C5.29962 18.8896 3.59375 24.0969 3.59375 29.9766H5.59375ZM10.3105 15.6068C13.5093 11.4168 18.0364 8.14124 23.9458 5.80496L23.2105 3.94504C17.0261 6.39001 12.1782 9.8644 8.72078 14.3932L10.3105 15.6068ZM23.952 5.80248C29.8629 3.41981 36.5301 2.21875 43.9688 2.21875V0.21875C36.3137 0.21875 29.3871 1.45519 23.2043 3.94752L23.952 5.80248ZM43.9688 2.21875C51.2079 2.21875 57.6503 3.50937 63.315 6.06762L64.1381 4.24488C58.1779 1.55313 51.4483 0.21875 43.9688 0.21875V2.21875ZM63.3177 6.06885C69.0219 8.62431 73.4142 12.257 76.5339 16.9591L78.2005 15.8534C74.8514 10.8055 70.15 6.93819 64.1354 4.24365L63.3177 6.06885ZM76.5364 16.9628C79.6523 21.6141 81.2188 26.9487 81.2188 33H83.2188C83.2188 26.5826 81.5508 20.8546 78.198 15.8497L76.5364 16.9628ZM82.2188 32H57.6094V34H82.2188V32ZM58.6094 33C58.6094 28.6075 57.2424 25.076 54.4074 22.5502L53.077 24.0435C55.3982 26.1115 56.6094 29.0487 56.6094 33H58.6094ZM54.4142 22.5563C51.6525 20.0504 47.9433 18.8516 43.4062 18.8516V20.8516C47.5879 20.8516 50.7694 21.9496 53.0702 24.0374L54.4142 22.5563ZM43.4062 18.8516C38.8584 18.8516 35.1283 19.8675 32.3228 22.0099L33.5366 23.5995C35.8874 21.8043 39.1416 20.8516 43.4062 20.8516V18.8516ZM32.325 22.0082C29.5619 24.1061 28.1328 26.8538 28.1328 30.1875H30.1328C30.1328 27.5212 31.235 25.347 33.5344 23.6011L32.325 22.0082ZM28.1328 30.1875C28.1328 33.2244 29.7767 35.8787 32.7431 38.153L33.96 36.5658C31.3014 34.5275 30.1328 32.4006 30.1328 30.1875H28.1328ZM32.7516 38.1594C35.705 40.3745 40.7861 42.6183 47.8788 44.9199L48.4962 43.0176C41.4326 40.7254 36.6231 38.563 33.9516 36.5594L32.7516 38.1594ZM47.8846 44.9218C54.9199 47.1581 60.6602 49.5697 65.125 52.1473L66.125 50.4152C61.496 47.7428 55.6114 45.2794 48.4904 43.0157L47.8846 44.9218ZM65.1257 52.1477C75.9303 58.3741 81.2188 66.859 81.2188 77.6484H83.2188C83.2188 66.0316 77.4447 56.9384 66.1243 50.4148L65.1257 52.1477ZM81.2188 77.6484C81.2188 86.3094 77.9742 93.0368 71.4902 97.9449L72.6973 99.5395C79.7133 94.2288 83.2188 86.8938 83.2188 77.6484H81.2188ZM71.4902 97.9449C64.9703 102.88 55.9512 105.406 44.3203 105.406V107.406C56.2206 107.406 65.7172 104.823 72.6973 99.5395L71.4902 97.9449ZM44.3203 105.406C36.144 105.406 28.7594 103.952 22.1508 101.06L21.3492 102.893C28.2406 105.908 35.9029 107.406 44.3203 107.406V105.406ZM22.1585 101.064C15.5955 98.1265 10.6947 94.1604 7.39571 89.1892L5.72929 90.2951C9.274 95.6365 14.4983 99.8266 21.3415 102.889L22.1585 101.064ZM7.40146 89.198C4.14084 84.1712 2.5 78.3871 2.5 71.8125H0.5C0.5 78.7379 2.23416 84.9069 5.72354 90.2864L7.40146 89.198ZM1.5 72.8125H26.25V70.8125H1.5V72.8125ZM25.25 71.8125C25.25 77.4539 26.6976 81.8247 29.7864 84.7076L31.1511 83.2455C28.6149 80.8784 27.25 77.1399 27.25 71.8125H25.25ZM29.7991 84.7193C32.9301 87.5422 37.8495 88.8438 44.3203 88.8438V86.8438C38.0411 86.8438 33.7262 85.5671 31.1384 83.2339L29.7991 84.7193ZM44.3203 88.8438C48.5294 88.8438 51.9754 87.9497 54.548 86.046L53.3583 84.4383C51.2433 86.0034 48.2675 86.8438 44.3203 86.8438V88.8438ZM54.5506 86.0441C57.2143 84.0594 58.5391 81.267 58.5391 77.7891H56.5391C56.5391 80.6861 55.4732 82.8625 53.3556 84.4403L54.5506 86.0441ZM158.367 61.6172V62.6172H159.367V61.6172H158.367ZM119.555 61.6172V60.6172H118.555V61.6172H119.555ZM119.555 86.0156H118.555V87.0156H119.555V86.0156ZM165.398 86.0156H166.398V85.0156H165.398V86.0156ZM165.398 105V106H166.398V105H165.398ZM94.875 105H93.875V106H94.875V105ZM94.875 2.625V1.625H93.875V2.625H94.875ZM165.539 2.625H166.539V1.625H165.539V2.625ZM165.539 21.6797V22.6797H166.539V21.6797H165.539ZM119.555 21.6797V20.6797H118.555V21.6797H119.555ZM119.555 43.2656H118.555V44.2656H119.555V43.2656ZM158.367 43.2656H159.367V42.2656H158.367V43.2656ZM158.367 60.6172H119.555V62.6172H158.367V60.6172ZM118.555 61.6172V86.0156H120.555V61.6172H118.555ZM119.555 87.0156H165.398V85.0156H119.555V87.0156ZM164.398 86.0156V105H166.398V86.0156H164.398ZM165.398 104H94.875V106H165.398V104ZM95.875 105V2.625H93.875V105H95.875ZM94.875 3.625H165.539V1.625H94.875V3.625ZM164.539 2.625V21.6797H166.539V2.625H164.539ZM165.539 20.6797H119.555V22.6797H165.539V20.6797ZM118.555 21.6797V43.2656H120.555V21.6797H118.555ZM119.555 44.2656H158.367V42.2656H119.555V44.2656ZM157.367 43.2656V61.6172H159.367V43.2656H157.367ZM213.492 68.8594L214.387 68.4122L214.11 67.8594H213.492V68.8594ZM200.133 68.8594V67.8594H199.133V68.8594H200.133ZM200.133 105V106H201.133V105H200.133ZM175.453 105H174.453V106H175.453V105ZM175.453 2.625V1.625H174.453V2.625H175.453ZM250.125 51.2812L249.275 50.7543L249.271 50.7605L250.125 51.2812ZM236.625 62.6719L236.197 61.768L235.26 62.2114L235.737 63.1318L236.625 62.6719ZM258 103.945H259V103.702L258.888 103.485L258 103.945ZM258 105V106H259V105H258ZM231.562 105L230.668 105.447L230.944 106H231.562V105ZM200.133 49.8047H199.133V50.8047H200.133V49.8047ZM226.289 46.1484L225.568 45.4551L225.568 45.4553L226.289 46.1484ZM226.289 25.4766L225.562 26.1632L225.568 26.1699L226.289 25.4766ZM200.133 21.6797V20.6797H199.133V21.6797H200.133ZM213.492 67.8594H200.133V69.8594H213.492V67.8594ZM199.133 68.8594V105H201.133V68.8594H199.133ZM200.133 104H175.453V106H200.133V104ZM176.453 105V2.625H174.453V105H176.453ZM175.453 3.625H215.742V1.625H175.453V3.625ZM215.742 3.625C227.745 3.625 236.99 6.29038 243.6 11.4965L244.838 9.92537C237.76 4.35025 228.02 1.625 215.742 1.625V3.625ZM243.6 11.4965C250.17 16.6712 253.484 23.98 253.484 33.5625H255.484C255.484 23.4575 251.955 15.5319 244.838 9.92537L243.6 11.4965ZM253.484 33.5625C253.484 40.5548 252.058 46.2651 249.275 50.7543L250.975 51.8082C254.004 46.9224 255.484 40.8202 255.484 33.5625H253.484ZM249.271 50.7605C246.535 55.2458 242.204 58.9253 236.197 61.768L237.053 63.5758C243.328 60.6059 247.996 56.6917 250.979 51.802L249.271 50.7605ZM235.737 63.1318L257.112 104.405L258.888 103.485L237.513 62.212L235.737 63.1318ZM257 103.945V105H259V103.945H257ZM258 104H231.562V106H258V104ZM232.457 104.553L214.387 68.4122L212.598 69.3066L230.668 105.447L232.457 104.553ZM200.133 50.8047H215.742V48.8047H200.133V50.8047ZM215.742 50.8047C220.594 50.8047 224.414 49.5411 227.01 46.8415L225.568 45.4553C223.476 47.6307 220.265 48.8047 215.742 48.8047V50.8047ZM227.01 46.8418C229.626 44.1234 230.875 40.4024 230.875 35.8125H228.875C228.875 40.0351 227.734 43.2048 225.568 45.4551L227.01 46.8418ZM230.875 35.8125C230.875 31.2226 229.626 27.5016 227.01 24.7832L225.568 26.1699C227.734 28.4202 228.875 31.5899 228.875 35.8125H230.875ZM227.016 24.7899C224.38 21.9985 220.562 20.6797 215.742 20.6797V22.6797C220.203 22.6797 223.417 23.8921 225.562 26.1632L227.016 24.7899ZM215.742 20.6797H200.133V22.6797H215.742V20.6797ZM199.133 21.6797V49.8047H201.133V21.6797H199.133ZM307.711 77.1562L306.746 77.4193L307.709 80.9518L308.675 77.4201L307.711 77.1562ZM328.102 2.625V1.625H327.338L327.137 2.36111L328.102 2.625ZM355.664 2.625L356.612 2.94396L357.056 1.625H355.664V2.625ZM321.211 105V106H321.93L322.159 105.319L321.211 105ZM294.211 105L293.262 105.317L293.49 106H294.211V105ZM260.039 2.625V1.625H258.651L259.091 2.94162L260.039 2.625ZM287.391 2.625L288.355 2.36196L288.154 1.625H287.391V2.625ZM308.675 77.4201L329.066 2.88889L327.137 2.36111L306.746 76.8924L308.675 77.4201ZM328.102 3.625H355.664V1.625H328.102V3.625ZM354.716 2.30604L320.263 104.681L322.159 105.319L356.612 2.94396L354.716 2.30604ZM321.211 104H294.211V106H321.211V104ZM295.159 104.683L260.988 2.30838L259.091 2.94162L293.262 105.317L295.159 104.683ZM260.039 3.625H287.391V1.625H260.039V3.625ZM286.426 2.88804L306.746 77.4193L308.676 76.8932L288.355 2.36196L286.426 2.88804ZM389.484 105V106H390.484V105H389.484ZM364.875 105H363.875V106H364.875V105ZM364.875 2.625V1.625H363.875V2.625H364.875ZM389.484 2.625H390.484V1.625H389.484V2.625ZM389.484 104H364.875V106H389.484V104ZM365.875 105V2.625H363.875V105H365.875ZM364.875 3.625H389.484V1.625H364.875V3.625ZM388.484 2.625V105H390.484V2.625H388.484ZM489.469 70.3359L490.468 70.3819L490.516 69.3359H489.469V70.3359ZM483.703 89.25L484.543 89.793L484.545 89.7897L483.703 89.25ZM468.867 101.906L468.441 101.001L468.439 101.003L468.867 101.906ZM408.961 24.7734L408.054 24.3512L408.053 24.3537L408.961 24.7734ZM424.078 7.33594L424.606 8.18531L424.61 8.18258L424.078 7.33594ZM476.812 10.9922L476.156 11.7468L476.159 11.7491L476.812 10.9922ZM489.68 37.9922V38.9922H490.773L490.676 37.9027L489.68 37.9922ZM465.07 37.9922L464.071 38.0222L464.1 38.9922H465.07V37.9922ZM428.859 49.3828L427.859 49.3689V49.3828H428.859ZM432.938 80.0391L432.072 80.5408L432.076 80.5472L432.938 80.0391ZM464.93 70.3359V69.3359H463.961L463.93 70.3037L464.93 70.3359ZM488.47 70.2899C488.149 77.2566 486.273 83.3877 482.861 88.7103L484.545 89.7897C488.164 84.1436 490.132 77.6653 490.468 70.3819L488.47 70.2899ZM482.863 88.707C479.458 93.9739 474.663 98.0737 468.441 101.001L469.293 102.811C475.822 99.7388 480.917 95.4011 484.543 89.793L482.863 88.707ZM468.439 101.003C462.265 103.93 455.173 105.406 447.141 105.406V107.406C455.421 107.406 462.813 105.883 469.296 102.81L468.439 101.003ZM447.141 105.406C433.927 105.406 423.624 101.113 416.109 92.5962L414.61 93.9194C422.563 102.934 433.448 107.406 447.141 107.406V105.406ZM416.109 92.5962C408.587 84.071 404.758 71.9635 404.758 56.1328H402.758C402.758 72.2709 406.663 84.9134 414.61 93.9194L416.109 92.5962ZM404.758 56.1328V51.0703H402.758V56.1328H404.758ZM404.758 51.0703C404.758 41.1536 406.472 32.5366 409.869 25.1932L408.053 24.3537C404.512 32.0103 402.758 40.9245 402.758 51.0703H404.758ZM409.867 25.1957C413.308 17.8107 418.221 12.1529 424.606 8.1853L423.55 6.48658C416.81 10.6753 411.645 16.6424 408.054 24.3512L409.867 25.1957ZM424.61 8.18258C430.996 4.16883 438.401 2.14844 446.859 2.14844V0.148438C438.068 0.148438 430.285 2.25305 423.546 6.4893L424.61 8.18258ZM446.859 2.14844C459.101 2.14844 468.832 5.37819 476.156 11.7468L477.469 10.2376C469.699 3.48119 459.462 0.148438 446.859 0.148438V2.14844ZM476.159 11.7491C483.479 18.0685 487.672 26.8122 488.684 38.0816L490.676 37.9027C489.625 26.2034 485.24 16.9471 477.466 10.2353L476.159 11.7491ZM489.68 36.9922H465.07V38.9922H489.68V36.9922ZM466.07 37.9621C465.879 31.6044 464.274 26.8072 461.037 23.8268L459.682 25.2982C462.351 27.7553 463.887 31.9112 464.071 38.0222L466.07 37.9621ZM461.037 23.8268C457.825 20.8696 453.033 19.4844 446.859 19.4844V21.4844C452.779 21.4844 456.988 22.8179 459.682 25.2982L461.037 23.8268ZM446.859 19.4844C440.428 19.4844 435.58 21.9156 432.51 26.8466L434.208 27.9034C436.858 23.6469 441.009 21.4844 446.859 21.4844V19.4844ZM432.51 26.8466C429.503 31.6783 428.001 39.2417 427.859 49.3689L429.859 49.3968C429.999 39.3676 431.497 32.2592 434.208 27.9034L432.51 26.8466ZM427.859 49.3828V56.625H429.859V49.3828H427.859ZM427.859 56.625C427.859 67.5776 429.213 75.6112 432.072 80.5408L433.803 79.5373C431.224 75.0919 429.859 67.5162 429.859 56.625H427.859ZM432.076 80.5472C435.065 85.6137 440.179 88.0703 447.141 88.0703V86.0703C440.696 86.0703 436.341 83.8394 433.799 79.5309L432.076 80.5472ZM447.141 88.0703C452.957 88.0703 457.567 86.7006 460.814 83.8093L459.483 82.3157C456.73 84.7682 452.668 86.0703 447.141 86.0703V88.0703ZM460.814 83.8093C464.095 80.8865 465.737 76.3308 465.929 70.3682L463.93 70.3037C463.748 75.9661 462.202 79.8948 459.483 82.3157L460.814 83.8093ZM464.93 71.3359H489.469V69.3359H464.93V71.3359ZM564.633 61.6172V62.6172H565.633V61.6172H564.633ZM525.82 61.6172V60.6172H524.82V61.6172H525.82ZM525.82 86.0156H524.82V87.0156H525.82V86.0156ZM571.664 86.0156H572.664V85.0156H571.664V86.0156ZM571.664 105V106H572.664V105H571.664ZM501.141 105H500.141V106H501.141V105ZM501.141 2.625V1.625H500.141V2.625H501.141ZM571.805 2.625H572.805V1.625H571.805V2.625ZM571.805 21.6797V22.6797H572.805V21.6797H571.805ZM525.82 21.6797V20.6797H524.82V21.6797H525.82ZM525.82 43.2656H524.82V44.2656H525.82V43.2656ZM564.633 43.2656H565.633V42.2656H564.633V43.2656ZM564.633 60.6172H525.82V62.6172H564.633V60.6172ZM524.82 61.6172V86.0156H526.82V61.6172H524.82ZM525.82 87.0156H571.664V85.0156H525.82V87.0156ZM570.664 86.0156V105H572.664V86.0156H570.664ZM571.664 104H501.141V106H571.664V104ZM502.141 105V2.625H500.141V105H502.141ZM501.141 3.625H571.805V1.625H501.141V3.625ZM570.805 2.625V21.6797H572.805V2.625H570.805ZM571.805 20.6797H525.82V22.6797H571.805V20.6797ZM524.82 21.6797V43.2656H526.82V21.6797H524.82ZM525.82 44.2656H564.633V42.2656H525.82V44.2656ZM563.633 43.2656V61.6172H565.633V43.2656H563.633Z" fill="#4143A5" fill-opacity="0.4"/>
</svg>
