<svg width="236" height="55" viewBox="0 0 236 55" fill="none" xmlns="http://www.w3.org/2000/svg">
<path opacity="0.7" d="M25.7305 39.0781L24.7657 39.3412L25.7288 42.8737L26.695 39.342L25.7305 39.0781ZM35.9258 1.8125V0.8125H35.1626L34.9612 1.54861L35.9258 1.8125ZM49.707 1.8125L50.6548 2.13146L51.0987 0.8125H49.707V1.8125ZM32.4805 53V54H33.199L33.4282 53.319L32.4805 53ZM18.9805 53L18.0319 53.3166L18.26 54H18.9805V53ZM1.89453 1.8125V0.8125H0.506503L0.945978 2.12912L1.89453 1.8125ZM15.5703 1.8125L16.5351 1.54946L16.3342 0.8125H15.5703V1.8125ZM26.695 39.342L36.8903 2.07639L34.9612 1.54861L24.7659 38.8142L26.695 39.342ZM35.9258 2.8125H49.707V0.8125H35.9258V2.8125ZM48.7593 1.49354L31.5327 52.681L33.4282 53.319L50.6548 2.13146L48.7593 1.49354ZM32.4805 52H18.9805V54H32.4805V52ZM19.929 52.6834L2.84308 1.49588L0.945978 2.12912L18.0319 53.3166L19.929 52.6834ZM1.89453 2.8125H15.5703V0.8125H1.89453V2.8125ZM14.6055 2.07554L24.7657 39.3412L26.6953 38.8151L16.5351 1.54946L14.6055 2.07554ZM66.6172 53V54H67.6172V53H66.6172ZM54.3125 53H53.3125V54H54.3125V53ZM54.3125 1.8125V0.8125H53.3125V1.8125H54.3125ZM66.6172 1.8125H67.6172V0.8125H66.6172V1.8125ZM66.6172 52H54.3125V54H66.6172V52ZM55.3125 53V1.8125H53.3125V53H55.3125ZM54.3125 2.8125H66.6172V0.8125H54.3125V2.8125ZM65.6172 1.8125V53H67.6172V1.8125H65.6172ZM99.6641 35.1758L99.0411 35.9581L99.0481 35.9636L99.6641 35.1758ZM85.0742 28.918L85.5173 28.0215L85.5151 28.0204L85.0742 28.918ZM77.5859 8L76.7911 7.39318L76.7901 7.39448L77.5859 8ZM84.6172 2.9375L84.9849 3.86748L84.9911 3.86498L84.6172 2.9375ZM104.691 3.07812L104.28 3.9895L104.283 3.99073L104.691 3.07812ZM111.512 8.70312L110.678 9.25598L110.681 9.25969L111.512 8.70312ZM113.938 17V18H114.938V17H113.938ZM101.633 17H100.633V18H101.633V17ZM99.6992 12.1484L99.0272 12.889L99.034 12.8951L99.6992 12.1484ZM89.293 11.9023L89.8977 12.6988L89.8999 12.6971L89.293 11.9023ZM89.5039 19.1797L88.8954 19.9733L88.9039 19.9797L89.5039 19.1797ZM96.9219 22.4844L96.6132 23.4356L96.6189 23.4374L96.9219 22.4844ZM105.641 26.1406L105.141 27.0067L105.141 27.0071L105.641 26.1406ZM83.7031 51.4883L83.2946 52.4011L83.3023 52.4044L83.7031 51.4883ZM76.1094 45.3711L75.2704 45.9153L75.2762 45.924L76.1094 45.3711ZM73.5781 36.4062V35.4062H72.5781V36.4062H73.5781ZM85.9531 36.4062H86.9531V35.4062H85.9531V36.4062ZM88.0625 42.4883L87.3802 43.2193L87.3865 43.2252L87.3929 43.231L88.0625 42.4883ZM99.8047 43.1211L100.4 43.9249L100.402 43.923L99.8047 43.1211ZM102.598 39.3945C102.598 37.3184 101.839 35.6066 100.28 34.388L99.0481 35.9636C100.068 36.7606 100.598 37.8613 100.598 39.3945H102.598ZM100.287 34.3935C98.8761 33.27 96.4951 32.1826 93.2675 31.0989L92.6309 32.9949C95.8252 34.0674 97.9208 35.0659 99.0411 35.9581L100.287 34.3935ZM93.2675 31.0989C90.0808 30.0289 87.5016 29.0022 85.5173 28.0215L84.6311 29.8144C86.7249 30.8493 89.3958 31.9086 92.6309 32.9949L93.2675 31.0989ZM85.5151 28.0204C79.1038 24.8714 76.125 20.6841 76.125 15.4883H74.125C74.125 21.6831 77.779 26.4489 84.6334 29.8155L85.5151 28.0204ZM76.125 15.4883C76.125 12.8601 76.8801 10.5792 78.3818 8.60552L76.7901 7.39448C75.0106 9.73332 74.125 12.4446 74.125 15.4883H76.125ZM78.3808 8.60682C79.9155 6.59654 82.0989 5.00842 84.9848 3.86746L84.2495 2.00754C81.0886 3.2572 78.5845 5.04409 76.7911 7.39318L78.3808 8.60682ZM84.9911 3.86498C87.8785 2.70106 91.1472 2.10938 94.8125 2.10938V0.109375C90.9309 0.109375 87.4028 0.73644 84.2433 2.01002L84.9911 3.86498ZM94.8125 2.10938C98.372 2.10938 101.521 2.74374 104.28 3.9895L105.103 2.16675C102.049 0.787509 98.6124 0.109375 94.8125 0.109375V2.10938ZM104.283 3.99073C107.057 5.23369 109.176 6.99133 110.678 9.25598L112.345 8.15027C110.613 5.53992 108.185 3.54756 105.1 2.16552L104.283 3.99073ZM110.681 9.25969C112.18 11.497 112.938 14.0659 112.938 17H114.938C114.938 13.6998 114.078 10.7374 112.343 8.14656L110.681 9.25969ZM113.938 16H101.633V18H113.938V16ZM102.633 17C102.633 14.6935 101.91 12.7791 100.364 11.4018L99.034 12.8951C100.066 13.8147 100.633 15.1347 100.633 17H102.633ZM100.371 11.4079C98.8752 10.0504 96.8886 9.42578 94.5312 9.42578V11.4258C96.5332 11.4258 97.992 11.9496 99.0272 12.889L100.371 11.4079ZM94.5312 9.42578C92.1865 9.42578 90.2025 9.94958 88.6861 11.1076L89.8999 12.6971C90.9616 11.8864 92.4698 11.4258 94.5312 11.4258V9.42578ZM88.6883 11.1059C87.1908 12.2428 86.3945 13.7601 86.3945 15.5938H88.3945C88.3945 14.4274 88.8639 13.4837 89.8977 12.6988L88.6883 11.1059ZM86.3945 15.5938C86.3945 17.3182 87.3353 18.7772 88.8955 19.9733L90.1123 18.3861C88.86 17.426 88.3945 16.4943 88.3945 15.5938H86.3945ZM88.9039 19.9797C90.4511 21.1401 93.0596 22.2824 96.6132 23.4355L97.2305 21.5332C93.7061 20.3895 91.3692 19.3287 90.1039 18.3797L88.9039 19.9797ZM96.6189 23.4374C100.115 24.5488 102.949 25.7416 105.141 27.0067L106.141 25.2746C103.785 23.9147 100.807 22.67 97.2248 21.5314L96.6189 23.4374ZM105.141 27.0071C110.415 30.046 112.938 34.1364 112.938 39.3242H114.938C114.938 33.3089 111.929 28.6103 106.14 25.2742L105.141 27.0071ZM112.938 39.3242C112.938 43.5086 111.38 46.7204 108.271 49.0738L109.479 50.6684C113.12 47.9124 114.938 44.093 114.938 39.3242H112.938ZM108.271 49.0738C105.127 51.4543 100.736 52.7031 94.9883 52.7031V54.7031C101.006 54.7031 105.873 53.3973 109.479 50.6684L108.271 49.0738ZM94.9883 52.7031C90.9604 52.7031 87.3375 51.9868 84.1039 50.5721L83.3023 52.4044C86.8187 53.9429 90.7193 54.7031 94.9883 54.7031V52.7031ZM84.1116 50.5755C80.9002 49.1382 78.5307 47.2112 76.9426 44.8181L75.2762 45.924C77.1099 48.6873 79.803 50.8383 83.2946 52.401L84.1116 50.5755ZM76.9483 44.8269C75.3752 42.4017 74.5781 39.6059 74.5781 36.4062H72.5781C72.5781 39.9566 73.4685 43.1374 75.2704 45.9153L76.9483 44.8269ZM73.5781 37.4062H85.9531V35.4062H73.5781V37.4062ZM84.9531 36.4062C84.9531 39.3054 85.6976 41.6489 87.3802 43.2193L88.7448 41.7572C87.6149 40.7027 86.9531 38.9915 86.9531 36.4062H84.9531ZM87.3929 43.231C89.0941 44.7649 91.705 45.4219 94.9883 45.4219V43.4219C91.8966 43.4219 89.8903 42.7898 88.7321 41.7456L87.3929 43.231ZM94.9883 45.4219C97.1583 45.4219 98.9989 44.9614 100.4 43.9249L99.2098 42.3173C98.2668 43.0151 96.8964 43.4219 94.9883 43.4219V45.4219ZM100.402 43.923C101.871 42.8289 102.598 41.2787 102.598 39.3945H100.598C100.598 40.6979 100.129 41.632 99.2072 42.3192L100.402 43.923ZM133.414 53V54H134.414V53H133.414ZM121.109 53H120.109V54H121.109V53ZM121.109 1.8125V0.8125H120.109V1.8125H121.109ZM133.414 1.8125H134.414V0.8125H133.414V1.8125ZM133.414 52H121.109V54H133.414V52ZM122.109 53V1.8125H120.109V53H122.109ZM121.109 2.8125H133.414V0.8125H121.109V2.8125ZM132.414 1.8125V53H134.414V1.8125H132.414ZM174.652 50.6094L175.171 51.4643L175.173 51.4632L174.652 50.6094ZM151.414 50.7148L150.901 51.5734L150.906 51.576L151.414 50.7148ZM143.504 42.1016L142.611 42.551L142.613 42.5555L143.504 42.1016ZM140.551 29.2695H139.551V29.2792L139.551 29.2889L140.551 29.2695ZM143.293 13.1328L142.392 12.6988L142.391 12.7012L143.293 13.1328ZM151.203 4.23828L150.685 3.38284L150.683 3.38442L151.203 4.23828ZM182.457 13.0273L181.559 13.4679L181.563 13.4746L182.457 13.0273ZM185.34 26.1055H186.34L186.34 26.1007L185.34 26.1055ZM170.223 14.75L169.379 15.2874L169.385 15.296L170.223 14.75ZM153.137 24.6992L152.137 24.6614L152.137 24.6756L152.137 24.6899L153.137 24.6992ZM153.102 28.4609L152.102 28.4516V28.4609H153.102ZM172.789 28.6719L173.789 28.6766V28.6719H172.789ZM184.34 28.4609C184.34 33.3283 183.438 37.5937 181.662 41.2809L183.463 42.1488C185.39 38.1485 186.34 33.578 186.34 28.4609H184.34ZM181.662 41.2809C179.888 44.9627 177.378 47.7765 174.132 49.7555L175.173 51.4632C178.77 49.2704 181.534 46.1545 183.463 42.1488L181.662 41.2809ZM174.134 49.7545C170.906 51.713 167.21 52.7031 163.016 52.7031V54.7031C167.54 54.7031 171.601 53.6307 175.171 51.4643L174.134 49.7545ZM163.016 52.7031C158.814 52.7031 155.127 51.745 151.922 49.8537L150.906 51.576C154.452 53.669 158.498 54.7031 163.016 54.7031V52.7031ZM151.927 49.8563C148.724 47.9435 146.214 45.2176 144.395 41.6476L142.613 42.5555C144.591 46.4386 147.354 49.455 150.901 51.5734L151.927 49.8563ZM144.397 41.6521C142.599 38.0786 141.642 33.9522 141.551 29.2501L139.551 29.2889C139.647 34.2431 140.659 38.6714 142.611 42.551L144.397 41.6521ZM141.551 29.2695V26.3867H139.551V29.2695H141.551ZM141.551 26.3867C141.551 21.4932 142.442 17.2274 144.195 13.5645L142.391 12.7012C140.488 16.6788 139.551 21.249 139.551 26.3867H141.551ZM144.194 13.5668C145.967 9.88499 148.477 7.07113 151.724 5.09214L150.683 3.38442C147.085 5.5773 144.322 8.69313 142.392 12.6988L144.194 13.5668ZM151.721 5.09371C154.996 3.11062 158.728 2.10938 162.945 2.10938V0.109375C158.397 0.109375 154.3 1.19407 150.685 3.38285L151.721 5.09371ZM162.945 2.10938C167.115 2.10938 170.8 3.09896 174.028 5.05801L175.066 3.34824C171.497 1.18229 167.447 0.109375 162.945 0.109375V2.10938ZM174.028 5.05801C177.252 7.01437 179.762 9.80643 181.559 13.4679L183.355 12.5868C181.402 8.60763 178.639 5.51688 175.066 3.34824L174.028 5.05801ZM181.563 13.4746C183.382 17.1137 184.317 21.3175 184.34 26.1102L186.34 26.1007C186.316 21.0497 185.329 16.5348 183.351 12.5801L181.563 13.4746ZM184.34 26.1055V28.4609H186.34V26.1055H184.34ZM173.789 26.3164C173.789 21.1461 172.924 17.0637 171.06 14.204L169.385 15.296C170.943 17.6863 171.789 21.3148 171.789 26.3164H173.789ZM171.066 14.2126C169.193 11.2734 166.448 9.77734 162.945 9.77734V11.7773C165.771 11.7773 167.877 12.9297 169.379 15.2874L171.066 14.2126ZM162.945 9.77734C159.561 9.77734 156.876 11.0688 155.035 13.6819C153.239 16.2315 152.316 19.9386 152.137 24.6614L154.136 24.7371C154.309 20.1786 155.197 16.9248 156.67 14.8338C158.099 12.8062 160.143 11.7773 162.945 11.7773V9.77734ZM152.137 24.6899L152.102 28.4516L154.102 28.4703L154.137 24.7086L152.137 24.6899ZM152.102 28.4609C152.102 33.5635 152.944 37.6326 154.747 40.5527L156.449 39.502C154.923 37.0315 154.102 33.3897 154.102 28.4609H152.102ZM154.747 40.5527C156.601 43.5557 159.403 45.0703 163.016 45.0703V43.0703C160.066 43.0703 157.923 41.8896 156.449 39.502L154.747 40.5527ZM163.016 45.0703C166.478 45.0703 169.197 43.569 171.066 40.635L169.379 39.5603C167.874 41.9232 165.788 43.0703 163.016 43.0703V45.0703ZM171.066 40.635C172.898 37.7598 173.765 33.7337 173.789 28.6766L171.789 28.6672C171.766 33.5475 170.922 37.1386 169.379 39.5603L171.066 40.635ZM173.789 28.6719V26.3164H171.789V28.6719H173.789ZM234.453 53V54H235.453V53H234.453ZM222.184 53L221.315 53.4949L221.602 54H222.184V53ZM204.043 21.1484L204.912 20.6535L203.043 17.372V21.1484H204.043ZM204.043 53V54H205.043V53H204.043ZM191.703 53H190.703V54H191.703V53ZM191.703 1.8125V0.8125H190.703V1.8125H191.703ZM204.043 1.8125L204.912 1.31833L204.625 0.8125H204.043V1.8125ZM222.148 33.6641L221.279 34.1582L223.148 37.4469V33.6641H222.148ZM222.148 1.8125V0.8125H221.148V1.8125H222.148ZM234.453 1.8125H235.453V0.8125H234.453V1.8125ZM234.453 52H222.184V54H234.453V52ZM223.053 52.5051L204.912 20.6535L203.174 21.6433L221.315 53.4949L223.053 52.5051ZM203.043 21.1484V53H205.043V21.1484H203.043ZM204.043 52H191.703V54H204.043V52ZM192.703 53V1.8125H190.703V53H192.703ZM191.703 2.8125H204.043V0.8125H191.703V2.8125ZM203.174 2.30667L221.279 34.1582L223.018 33.1699L204.912 1.31833L203.174 2.30667ZM223.148 33.6641V1.8125H221.148V33.6641H223.148ZM222.148 2.8125H234.453V0.8125H222.148V2.8125ZM233.453 1.8125V53H235.453V1.8125H233.453Z" fill="#4143A5" fill-opacity="0.4"/>
</svg>
